<?xml version="1.0" encoding="UTF-8"?>
<svg id="_レイヤー_2" data-name="レイヤー 2" xmlns="http://www.w3.org/2000/svg" viewBox="0 0 181.83 287.33" width="100" height="100">
  
  <g id="_メイン" data-name="メイン">
    <path d="m69.76,149.04c12.26-23.36,22.33-42.09,31.97-61.04,7.99-15.71,15.94-31.44,24.36-46.93,6.02-11.07,12.91-21.61,19.36-32.43,1.36-2.28,2.95-4.44,4.9-6.26,2.97-2.77,5.15-3.06,8.74-1.21,5.65,2.9,10.42,7.01,15.11,11.21,2.29,2.05,4.47,4.21,6.69,6.34.75.72,1.35,1.6.52,2.54-.67.76-1.56.32-2.3-.08-3.93-2.14-7.83-4.35-11.79-6.44-2.97-1.56-6-3-9.03-4.44-.29-.14-.91-.22-1.12.1-.21.33.13.9.39,1.09.9.66,1.85,1.25,2.83,1.79,5.02,2.77,10.06,5.51,15.08,8.28.98.54,1.95,1.1,2.85,1.76.26.19.45.78.36,1.09-.18.64-.83.71-1.35.5-.9-.37-1.77-.82-2.63-1.3-5-2.81-9.99-5.64-14.99-8.45-.97-.55-1.97-1.06-2.97-1.55-.34-.17-.76-.32-1.06.14-.31.47-.03.85.28,1.07.8.56,1.64,1.06,2.49,1.54,5.11,2.89,10.24,5.77,15.35,8.66.85.48,1.71.96,2.52,1.51.41.28,1,.62.72,1.29-.31.72-.93.48-1.41.25-1-.49-1.98-1.05-2.95-1.59-5.13-2.86-10.26-5.73-15.4-8.58-.85-.47-1.75-.83-2.66-1.17-.17-.06-.49.16-.69.31-.23.18-.21.48.08.68.69.47,1.38.93,2.11,1.35,5.23,2.97,10.47,5.93,15.7,8.9.97.55,1.93,1.13,2.83,1.78.31.22.47.71.09,1.06-.16.15-.52.27-.7.2-1.03-.42-2.06-.86-3.03-1.39-5.04-2.74-10.06-5.51-15.09-8.27-.49-.27-.96-.58-1.47-.81-.71-.33-1.58-1.18-2.16-.33-.32.47.73,1.02,1.32,1.37.72.43,1.46.83,2.19,1.25,4.99,2.82,9.99,5.64,14.97,8.48.85.48,1.67,1.01,2.46,1.58.16.12.21.5.18.75-.05.55-.58.66-.92.54-.91-.33-1.8-.75-2.66-1.22-4.9-2.7-9.78-5.43-14.68-8.13-1.1-.61-2.24-1.14-3.38-1.67-.33-.15-.8-.19-.95.26-.06.18.15.57.35.69.82.53,1.67,1.01,2.52,1.49,5,2.8,10.01,5.6,15.02,8.4.61.34,1.24.66,1.81,1.06.64.44,1.89.79,1.4,1.71-.66,1.23-1.71.19-2.46-.19-2.86-1.47-5.67-3.03-8.5-4.56-3.32-1.8-6.63-3.61-9.97-5.38-.51-.27-1.24-.94-1.66-.11-.23.46.54.87,1.02,1.14,5.51,3.05,11.04,6.05,16.5,9.18,1.23.71,3.89,1.41,3.18,2.61-1.06,1.79-2.85-.32-4.13-.97-5.6-2.88-11.09-5.96-16.63-8.95-.34-.18-1.05-.35-1.13-.23-.45.67.28.87.66,1.08,5.72,3.25,11.46,6.45,17.16,9.73,1.1.63,3.41,1.07,2.68,2.46-.77,1.47-2.4-.23-3.5-.81-4.94-2.62-9.82-5.36-14.73-8.05-.98-.54-1.96-1.09-2.95-1.6-.48-.25-1.22-.47-1.44.05-.21.48.4.96.89,1.26.72.44,1.43.88,2.17,1.28,3.67,2.04,7.34,4.07,11.01,6.11,1.84,1.02,3.69,2.01,5.5,3.07.91.53,2.53,1.06,1.8,2.32-.7,1.21-2.01.16-2.95-.37-5.24-2.95-10.46-5.94-15.7-8.9-1.09-.62-2.23-1.18-3.37-1.7-.35-.16-.85-.2-.91.39-.02.23.1.59.28.71.8.56,1.63,1.08,2.48,1.56,5.23,2.98,10.47,5.94,15.69,8.93.96.55,1.87,1.21,2.76,1.87.16.12.25.49.2.71-.11.49-.6.64-.96.49-1.03-.43-2.03-.93-3-1.47-5.27-2.9-10.53-5.83-15.79-8.73-.86-.47-1.73-.92-2.63-1.3-.37-.16-.86-.03-1,.43-.05.17.18.51.38.64.58.39,1.2.72,1.81,1.06,5.36,3.02,10.73,6.04,16.09,9.06.85.48,1.71.95,2.52,1.5.45.3.9.75.45,1.38-.41.58-1.01.38-1.48.16-1.02-.47-1.99-1.01-2.97-1.55-5.15-2.83-10.29-5.66-15.44-8.49-.61-.34-1.21-.72-1.86-.96-.33-.12-.99-.3-1.15.06-.17.37.43.74.75.95.81.55,1.67,1.02,2.52,1.5,5.24,2.96,10.48,5.91,15.71,8.89.84.48,1.81.8,2.33,1.69.11.19.1.55,0,.75-.1.18-.47.4-.62.35-.91-.32-1.83-.65-2.68-1.11-5.16-2.81-10.29-5.66-15.44-8.48-1.1-.6-2.24-1.15-3.38-1.67-.21-.1-.66-.15-.8.09-.14.23.12.6.3.73.69.47,1.43.88,2.16,1.29,5.24,2.95,10.49,5.89,15.74,8.83.85.48,1.72.95,2.53,1.5.55.37,1.31.8.74,1.61-.36.51-1.04.28-1.51.05-2.62-1.32-5.24-2.64-7.82-4.04-4.06-2.2-8.09-4.46-12.13-6.69-.49-.27-1.23-.66-1.5-.23-.28.43.38.9.87,1.18,4.52,2.51,9.05,5.03,13.57,7.55,1.83,1.02,3.68,2.03,5.47,3.11.66.39,1.81.75,1.38,1.74-.47,1.08-1.44.34-2.11.02-2.15-1.02-4.28-2.06-6.37-3.2-3.81-2.08-7.56-4.25-11.37-6.32-.76-.41-2.27-1.81-2.79-1.1-.6.73,1.45,1.46,2.15,1.85,5.24,2.96,10.53,5.83,15.72,8.86,1.26.74,3.82,1.55,3.03,2.97-.35.91-2.65-.54-3.92-1.21-5.3-2.83-10.55-5.77-15.82-8.66-.61-.34-1.23-.66-1.87-.94-.34-.15-.75-.37-1.07.03-.35.44-.02.83.29,1.04.92.64,1.86,1.24,2.84,1.78,5.14,2.84,10.32,5.62,15.44,8.5,1.01.57,3.04,1.33,2.4,2.36-.6,1.29-2.42.03-3.49-.55-5.28-2.89-10.49-5.89-15.74-8.83-.97-.54-2.01-.96-3.01-1.43-.34-.16-.5-.02-.65.28-.15.3-.21.53.08.74.79.56,1.56,1.17,2.4,1.64,4.62,2.63,9.26,5.23,13.89,7.84.85.48,1.66,1.05,2.53,1.48,1.08.53,2.95.88,2.11,2.38-.6,1.07-1.95-.27-2.83-.75-4.91-2.68-9.74-5.51-14.69-8.13-1.63-.86-4.1-2.69-5.19-2.06-.63.84,2.73,2.36,4.23,3.26,4.67,2.82,9.47,5.41,14.22,8.11.85.48,1.66,1.03,2.45,1.6.17.12.26.49.23.72-.08.5-.55.65-.92.49-1.03-.42-2.05-.88-3.03-1.42-5.16-2.81-10.3-5.65-15.46-8.47-.86-.47-1.74-.89-2.64-1.27-.2-.09-.66-.09-.79.15-.12.23.11.58.29.7.8.56,1.63,1.08,2.48,1.57,5.23,2.97,10.47,5.92,15.7,8.9.85.48,1.68,1.01,2.46,1.59.33.24.45.72.11,1.08-.15.16-.52.29-.71.22-.91-.35-1.82-.7-2.67-1.17-5.02-2.76-10.03-5.57-15.05-8.33-1.1-.61-2.25-1.13-3.39-1.64-.22-.1-.7-.06-.77.08-.2.37-.03.76.34.98.84.5,1.69.98,2.54,1.46,5.13,2.87,10.26,5.73,15.39,8.6.61.34,1.24.66,1.8,1.07.51.37,1.43.62,1.04,1.51-.41.93-1.23.4-1.77.14-2.5-1.26-4.97-2.57-7.43-3.91-3.69-2-7.35-4.05-11.06-6.01-.77-.4-1.89-1.65-2.45-.53-.41.8,1.24,1.23,2.06,1.68,5.62,3.14,11.26,6.23,16.85,9.42.85.48,2.67.81,2.02,2.09-.64,1.27-1.95.04-2.82-.42-5.68-3.01-11.32-6.11-17-9.14-.76-.41-1.66-1.54-2.41-.67-.34.39,1.06,1.06,1.76,1.46,5.23,2.97,10.47,5.92,15.71,8.87.37.21.78.34,1.1.61.88.72,3.02.93,2.28,2.3-.72,1.32-2.19-.14-3.18-.67-5.18-2.76-10.31-5.63-15.47-8.45-.98-.54-1.97-1.05-2.98-1.52-.22-.1-.69-.11-.77.02-.26.39.03.7.37.91.83.51,1.67,1.03,2.52,1.51,5.25,2.94,10.52,5.85,15.73,8.85.84.48,2.65.85,1.96,2.11-.71,1.3-1.98-.06-2.82-.51-5.17-2.79-10.27-5.71-15.43-8.52-1.28-.7-3.6-2.01-3.91-1.37-.62.66,1.78,1.85,2.94,2.53,4.82,2.84,9.72,5.54,14.59,8.3.85.48,1.7.97,2.54,1.47.64.38,1.27.99.83,1.64-.4.59-1.27.39-1.92.03-5.75-3.19-11.5-6.38-17.25-9.56-.97-.54-1.99-1-2.99-1.49-.34-.16-.49-.03-.65.24-.17.31-.21.53.09.74.81.54,1.59,1.12,2.44,1.6,5.13,2.87,10.27,5.71,15.4,8.57.85.48,1.72.95,2.5,1.52.26.19.45.76.37,1.08-.16.69-.8.73-1.32.5-1.02-.46-2-1-2.98-1.54-5.37-3.01-10.72-6.06-16.11-9.03-.57-.31-1.62-1.08-2-.21-.32.72.59,1.13,1.16,1.45,5.12,2.88,10.26,5.72,15.39,8.59,1.1.61,2.2,1.23,3.24,1.93.53.35,1.37.77.77,1.6-.54.74-1.26.24-1.84-.08-2.94-1.63-5.86-3.28-8.79-4.93-3.17-1.79-6.32-3.61-9.51-5.36-.66-.36-2.11-.99-2.18-.3-.07.68.67,1.28,1.27,1.61,4.03,2.25,8.12,4.4,12.15,6.64,2.44,1.36,4.82,2.82,7.21,4.27.32.2.57.57.36,1.04-.22.49-.7.55-1.04.41-.9-.37-1.77-.84-2.62-1.31-5.02-2.77-10.04-5.55-15.06-8.32-.86-.47-1.74-.89-2.63-1.31-.38-.18-.84-.28-1.13.08-.61.76.25.96.61,1.15,4.52,2.52,9.07,4.99,13.61,7.47,1.47.81,2.98,1.56,4.4,2.45.87.54,2.46,1.29,2.02,2.16-.43.86-1.94.03-2.78-.42-2.97-1.56-5.86-3.29-8.8-4.9-2.95-1.61-5.92-3.17-8.9-4.72-.32-.17-1.47-.55-1.62-.38-.64.74.75,1.23,1.11,1.43,5.5,3.05,11.06,6.01,16.53,9.13,1.28.73,3.79,1.8,3.07,2.98-.32.74-2.68-.48-3.93-1.16-5.53-3.02-10.98-6.17-16.48-9.22-.46-.26-1.17-1.16-1.66-.14-.25.52.46.92.93,1.19,3.65,2.06,7.31,4.13,10.98,6.16,2.45,1.36,4.93,2.65,7.38,4,.73.4,1.77.96,1.32,1.83-.62,1.21-1.71.4-2.5-.04-4.41-2.43-8.79-4.92-13.18-7.38-1.71-.96-3.4-1.95-5.13-2.87-.56-.3-1.37-.97-1.8-.29-.65,1.03.52,1.4,1.16,1.77,5.22,2.98,10.47,5.92,15.71,8.88,1.1.62,2.19,1.25,3.25,1.93.44.28,1.04.66.8,1.26-.39.95-1.17.49-1.73.19-5.51-3.04-10.98-6.17-16.52-9.16-1.39-.75-4.15-2.37-4.48-1.71-.38.76,2.43,2.25,3.79,3.07,4.67,2.82,9.47,5.42,14.21,8.11.96.55,2.03.94,2.76,1.85.22.27.2.47.07.75-.15.31-.29.39-.65.35-1.16-.14-2.08-.8-3.05-1.33-5.16-2.81-10.3-5.65-15.45-8.47-.74-.4-1.46-.85-2.23-1.16-.34-.14-.98-.16-1.14.04-.22.28.09.71.45.93.84.5,1.67,1.02,2.52,1.5,4.99,2.83,9.99,5.65,14.97,8.48.85.48,1.69,1,2.5,1.54.32.22.64.54.47,1.01-.27.77-.9.55-1.37.35-.9-.37-1.77-.83-2.62-1.3-4.77-2.64-9.54-5.3-14.31-7.93-1.1-.61-2.24-1.14-3.37-1.69-.37-.18-.81-.15-.97.28-.06.17.14.57.33.69.82.53,1.68,1,2.53,1.48,5.25,2.94,10.51,5.86,15.74,8.82.84.47,1.6,1.09,2.38,1.66.28.2.29.49.03.73-.18.16-.42.35-.63.35-1.03,0-1.83-.61-2.69-1.07-5.29-2.85-10.58-5.72-15.87-8.58-.86-.46-1.72-.93-2.61-1.35-.19-.09-.6-.05-.73.09-.36.39-.12.74.26.96.6.36,1.23.66,1.84,1,5.38,2.99,10.76,5.97,16.14,8.98.85.48,1.66,1.03,2.45,1.59.39.28.35.75.08,1.08-.13.17-.53.27-.74.2-.79-.28-1.57-.58-2.31-.97-5.3-2.84-10.59-5.71-15.88-8.56-.86-.46-1.71-.96-2.6-1.37-.29-.13-.84-.47-.95.24-.03.23.08.59.25.71.8.56,1.62,1.1,2.47,1.58,4.77,2.65,9.55,5.28,14.32,7.92.86.47,1.76.89,2.54,1.48,1.63,1.23,1.52,2.43-.41,2.91-7.61,1.89-14.05,6.2-20.77,9.89-7.38,4.05-14.13,9.01-19.9,15.22-2.1,2.26-3.96,4.66-5.46,7.39-10.99,19.98-21.89,40.02-33.09,59.87-10.38,18.39-21.12,36.59-31.7,54.87-1.54,2.66-3.06,5.34-4.61,8-.49.84-.99,1.71-1.64,2.42-.71.77-1.65,1.04-2.65.43-.82-.5-1.08-1.32-.84-2.17.31-1.06.7-2.12,1.22-3.1,15.24-28.81,29.74-58,45.26-86.67,8.98-16.6,17.03-33.71,23.2-46.01Z"/>
  </g>
</svg>