<?xml version="1.0" encoding="UTF-8"?>
<svg id="_レイヤー_2" data-name="レイヤー 2" xmlns="http://www.w3.org/2000/svg" viewBox="0 0 281.49 288.28" width="150" height="150">
  <defs>
    <style>
      .cls-1 {
        fill: none;
        stroke: #333;
        stroke-linecap: round;
        stroke-linejoin: round;
        stroke-width: 1px;
      }
    </style>
  </defs>
  <g id="_レイヤー_1-2" data-name="レイヤー 1">
    <g>
      <path class="cls-1" d="m246.11,55.87c20.54,28.46-3.92,40.12-2.77,53.82.32,3.77,2.96,7.39,4.84,10.55,2.38,3.99,12.31,10.56,3.29,14.13"/>
      <path class="cls-1" d="m244.09,145.6c-.18,3.29,1.75,6.17-1.29,8.66-.75.61-3.35,2.66-4.09,3.26-1.04.84-.87,2.5-1.55,3.58-2.15,3.44-4.82,8.56-8.05,11.2-10.28,8.38-30.95-6.34-38.61-11.43"/>
      <path class="cls-1" d="m86.21,101.89c-1.06,1.9-4.1.88-5.87.35-3.33-1-6.71-4.78-5.48-8.09.81-2.18,4.07-1.15,5.09-1.76,1.59-.95-.38-3.69,3.13-2.11"/>
      <path class="cls-1" d="m88.96,89.92c.52-.23.98-.66,1.57-.7,1.3-.1,2.61-.08,3.92,0,3.36.22,3.92,3.26,3.92,5.63,0,3.9-2.79,6.33-7.05,6.33"/>
      <path class="cls-1" d="m99.53,95.91c2.79-.84,5.14-3.94,6.66-5.98,1.38-1.86,2.46-5.49,1.96-7.74-.2-.91-.88-1.9-1.17-2.82-.35-1.11-1.11-2.85-2.35-3.52-2.19-1.18-5.05-1.14-7.44-1.41-1.5-.17-2.41-.67-3.92,0"/>
      <path class="cls-1" d="m94.83,78.66c-1.78,0-2.94,2.42-2.74,3.87.3,2.16,3.13.33,3.13,1.06,0,.37-.84.13-1.17.35-1.28.86-.89,2.72,0,3.52"/>
      <path class="cls-1" d="m72.12,98.72c-2.13-.64-3.56-1.05-5.48-2.46-5.66-4.16-5.03-13.58,1.57-16.54"/>
      <path class="cls-1" d="m72.12,82.89c1.43,0,2.49.38,2.74,1.76.15.81.13,1.35-.78,1.76-.23.11-.78,0-.78,0,0,0,1.74-.1,2.35.35,1.48,1.11,1.98,3.82,1.17,5.28"/>
      <path class="cls-1" d="m68.99,78.66c-2.07-1.86.08-6.69,1.96-8.09,4.07-3.05,9.18-2.8,13.7-1.06,2.32.89,4.11.51,5.09,3.17"/>
      <path class="cls-1" d="m74.47,79.37c.17.61.07,1.76,1.17,1.76,1.31,0,2.69.07,3.92-.35.61-.21.81-.92,1.17-1.41.16-.22.39-.97.39-.7,0,.83-.68,1.68-.39,2.46.39,1.04,2.61,1.29,3.52,1.06,3.67-.94,3.42-4.45,7.83-2.46"/>
      <path class="cls-1" d="m85.04,69.87c1.02-1.83,2.7-1.06,5.09-1.06,3.44,0,5.5,2.55,6.26,5.28"/>
      <path class="cls-1" d="m79.95,86.93c-1.89,2.39,2.07,1.85,3.13.18,1.23-1.93-2.16-1.41-3.13-.18Z"/>
      <path class="cls-1" d="m87.58,83.94c-.3.13-2.65,2.41-.98,3.17.58.26,1.33.16,1.96,0,1.1-.28,3.73-5.18-.98-3.17Z"/>
      <path class="cls-1" d="m134.77,85.86c-.66-.43-1.51-.65-2.06-1.19-.21-.21-.06-.57-.02-.85.12-.92.23-1.84.5-2.73.76-2.51,5.81-3.53,8.02-4.58,1.71-.81,2.91-1.61,4.63-.35,1.55,1.14,3.14,4.48,1.76,6-.67.73-1.94.78-2.61,1.41-1.08,1.01-.29,2.33-.86,3.42-.89,1.68-6.22.89-7.56.15-.65-.36-1.16-.88-1.78-1.28Z"/>
      <path class="cls-1" d="m134.64,86.33s-1.16.76-1.21.96c-.33,1.29-.45,2.61-.66,3.92-.6,3.82,1.37,7.29,5.96,7.79"/>
      <path class="cls-1" d="m143.7,97.12c1.64-1.54,2.83-3.15,2.89-5.5.01-.55-2.52.05-2.66-.29-.41-1.04,3.25-2.07-1.01-2.53"/>
      <path class="cls-1" d="m147.36,95.94c2.04,1.75,6.2,1.42,8.02-.58.14-.15-.04-.43.08-.6.49-.72,1.35-1.23,1.75-1.99,1.4-2.66,2.58-5.59,2.63-8.55.02-.99.07-2.68-.75-3.47-1.61-1.55-3.85-1.63-5.91-2.09"/>
      <path class="cls-1" d="m150.43,90.1c-.92.87-3.31-.57-3.26-1.81.05-1.16,4.12-1.62,4.02-1.86-.19-.48-1.34-.17-1.53-.65-.28-.7,3.57-5.27,4.3-5.95"/>
      <path class="cls-1" d="m147.06,76.05c.03-.25,0-1,.54-1.03,1.61-.08,3.25-.11,4.83.16,1.27.22,2.26,2.48,2.64,3.43"/>
      <path class="cls-1" d="m149.02,82.56c.32.81.04.4,1.07,1.08"/>
      <path class="cls-1" d="m223.52,73.24c-.42.38-.65.91-1.09,1.26-2.6,2.09-13.02,2.06-15.12-.9-1-1.41-.36-4.56.35-6.01.46-.95,1.55-.9,2.34-1.4,2.19-1.39,4.27.23,6.7-1.16,1.98-1.13.57-4.68,3.97-5.21,1.77-.28,2.48.57,4.01.95.74.19,1.22-.36,1.93-.08,2.17.86,1.8,3.75,1.64,5.31-.31,3.01-2.33,5.04-4.73,7.24Z"/>
      <path class="cls-1" d="m217.94,45.17c6.42-2.24,11.56,1.67,12.67,7.35.19.97-.05,1.97-.03,2.95.02,1.52.14,2.86-.84,4.12"/>
      <path class="cls-1" d="m217.4,47.72c-4.93,1.72,2.77,7.81,1.35,10.71"/>
      <path class="cls-1" d="m197.72,53.7c-2.63-.22,1-6.53,2.3-7.57,3.07-2.46,9.59-5.34,13.77-4.51,1.21.24,2.36,1.71,3.32,2.37"/>
      <path class="cls-1" d="m203.62,53.7c-.02.2-.2.95.16,1.12.83.39,1.76.6,2.65.84.22.06.47.13.68.06,1.14-.4,1.28-1.02,1.83-1.82.12-.17.29-.59.46-.45.53.43.25,1.36.77,1.79,1.8,1.47,3.33-1.5,3.83-2.51"/>
      <path class="cls-1" d="m198.57,69.29c-3.56,1.24-6.99-2.14-7.53-5.32-.63-3.73,1.06-7.1,4.13-9.39"/>
      <path class="cls-1" d="m203.99,65.93c1.07-1.06,3.24-2.13,3.67-3.63.92-3.23-4.55-4.16-.49-7.19"/>
      <path class="cls-1" d="m198.05,70.36c-1.62,1.6.67,3.41,2.16,4.25,3.11,1.74,5.07.94,8-.44"/>
      <path class="cls-1" d="m212.01,60.63c.18.5,1.22,1.26,1.49.8.38-.63.75-1.32.76-2.03.01-1.19-3.37-1.82-2.25,1.23Z"/>
      <path class="cls-1" d="m207.98,63.8c0,.42-.13.97.21,1.25,1.45,1.19,2.53-1.35,2.29-2.27-.45-1.73-2.5.29-2.51,1.02Z"/>
      <path class="cls-1" d="m209,56.68c-.23.69.03,1.45.12,2.17.09.71,1.65,1.14,2.26.68,1.03-.77,1.35-3.51.33-4.53-.29-.29-.83-.69-1.18-.47-.78.48-1.26,1.33-1.53,2.15Z"/>
      <path class="cls-1" d="m191.45,57.36c-.76-1.76.71-4.08,1.54-5.54,1.39-2.44,3.4-3.24,6.05-4.17"/>
      <path class="cls-1" d="m213.33,42.07c1.53-1.51,3.75-.69,5.96-.61,1.88.07,2.91,1.25,4,2.43"/>
      <path class="cls-1" d="m232.64,57.99c1.72,3.97-.87,7.74-3.58,10.67"/>
      <path class="cls-1" d="m168.58,76.8c-.86,3.53-7.28,3.42-9.42,2.58-2.68-1.06-2.71-1.42-3.96-3.49-.48-.79-2.29-1.26-2.99-1.88-.75-.66-.28-.96-.3-1.52-.03-.85-1.02-1.72-1.54-2.3-.58-.64-4.75-4.89-3.14-5.97.86-.57,6.82,1.65,7.96,1.67.95.02,1.35-.91,2.54-.4.88.38,1.58,1.25,2.49,1.56,1.03.35,2-.19,3.11.29,3.69,1.58,6.39,4.79,5.25,9.46Z"/>
      <path class="cls-1" d="m148.48,65.01c6.23,3.91,12.31,8.07,18.5,11.95"/>
      <path class="cls-1" d="m155.88,75.98c2.68.71,6.73.58,9.08.71"/>
      <path class="cls-1" d="m151.7,71.36c.6.38,1.38.48,2.09.65,1.76.42,3.52.88,5.28,1.32"/>
      <path class="cls-1" d="m156.54,66.07c.84.53.67.34,1.39,1.54,1.04,1.72,1.99,3.47,2.99,5.21"/>
      <path class="cls-1" d="m162.91,67.41c1.01,2.32,1.87,4.03,3.04,6.57.39.84.47,1.79.95,2.59"/>
      <path class="cls-1" d="m67.03,79.2c-1.74,3.25-7.96,1.81-9.82.55-2.34-1.59-2.27-1.95-2.96-4.21-.26-.87-1.9-1.7-2.42-2.45-.56-.79-.02-.99.1-1.54.19-.84-.55-1.88-.91-2.56-.4-.74-3.37-5.75-1.52-6.46.98-.38,6.21,3.02,7.32,3.28.92.22,1.55-.61,2.57.13.76.55,1.21,1.54,2.02,2.04.91.56,2,.24,2.95.93,3.19,2.31,4.98,5.99,2.67,10.29Z"/>
      <path class="cls-1" d="m50.51,63.54c5.06,5.1,9.9,10.41,14.92,15.47"/>
      <path class="cls-1" d="m54.89,75.76c2.42,1.25,6.4,1.96,8.65,2.58"/>
      <path class="cls-1" d="m52,70.39c.49.5,1.22.75,1.87,1.06,1.61.78,3.2,1.58,4.79,2.38"/>
      <path class="cls-1" d="m58.08,66.26c.68.69.56.47.96,1.79.57,1.89,1.05,3.79,1.57,5.69"/>
      <path class="cls-1" d="m63.93,68.88c.39,2.46.78,4.31,1.27,7.03.16.9,0,1.84.25,2.72"/>
      <path class="cls-1" d="m234.98,57.37c-3.78-1.22-2.83-6.93-1.62-8.73,1.51-2.26,1.92-2.23,4.36-3.08.93-.32,1.68-1.87,2.46-2.42.82-.58,1.1-.12,1.72-.07.95.08,2.03-.68,2.74-1.08.78-.43,6.01-3.6,6.99-2.02.52.84-2.7,5.86-2.88,6.88-.14.84.83,1.33.12,2.31-.53.74-1.58,1.24-2.05,2.02-.52.87-.06,1.81-.72,2.73-2.23,3.09-6.11,5.07-11.11,3.45Z"/>
      <path class="cls-1" d="m250.6,40.98c-5.13,5.05-10.5,9.93-15.59,14.94"/>
      <path class="cls-1" d="m237.53,46.16c-1.14,2.3-1.51,5.92-1.96,8"/>
      <path class="cls-1" d="m243.18,43.03c-.5.49-.7,1.17-.99,1.78-.7,1.52-1.42,3.02-2.14,4.53"/>
      <path class="cls-1" d="m248.38,48.03c-.69.68-.46.55-1.88,1.04-2.03.7-4.09,1.33-6.13,1.99"/>
      <path class="cls-1" d="m246.08,53.54c-2.69.6-4.69,1.14-7.65,1.86-.98.24-2.04.18-2.98.51"/>
      <path class="cls-1" d="m106.9,99.69c0,2.56-3.9,5.4-6.53,5.87-.84.15-1.46-.2-2.29.29-.64.38-.9,1.69-1.63,1.47-.33-.1-.05-.69-.33-.88-1.53-1.03-4.57,4.45-4.57.29"/>
      <path class="cls-1" d="m210.06,80.03c-.88,2.38-.49,3.93-2.94,5.57-.46.31-.85,1.06-1.63.88-.24-.05-.1-.66-.33-.59-.8.24-1.32,2.21-2.28,2.64-1.03.46-2.41-.05-3.59.59-.53.29-4.21,3.15-4.57,2.93-1.07-.64,1.62-3.85,1.31-4.99-.34-1.22-2.06.75-.98-2.64.11-.33,1.66-3.2,1.63-3.23-.17-.15-1.5.82-1.96,0-.93-1.67,1.47-4.25,2.61-5.28"/>
      <path class="cls-1" d="m105.27,96.61c0,5.28,3.92,2.13,3.92-1.03,0-2.88-3.92-1.11-3.92,1.03Z"/>
      <path class="cls-1" d="m110.99,96.46c-1.21,2.84,4.08,3,4.08-.88,0-2.44-3.48-.54-4.08.88Z"/>
      <path class="cls-1" d="m111.31,91.47c-1.76,3.5,1.73,3.17,3.43.88,2.51-3.39-1.12-5.47-3.43-.88Z"/>
      <path class="cls-1" d="m116.05,96.75c.85-2.28,5.23-3.47,7.51-4.69"/>
      <path class="cls-1" d="m115.07,93.82c2.51-.75,4.98-1.59,7.51-2.35"/>
      <path class="cls-1" d="m162.4,90.59c.45.38-4.33,3.52-2.28,4.99,2.79,2.01,6.53-2.27,6.53-4.4s-3.98-2.47-5.55-1.47c-.32.21-.97.67-.65.88.52.35,1.48-.4,1.96,0Z"/>
      <path class="cls-1" d="m167.79,91.47c1.12.94-.56,1.85.16,2.93.71,1.07,3.1,0,3.59-.59.35-.42.53-.95.65-1.47,1.08-4.38-5.61-1.89-4.41-.88Z"/>
      <path class="cls-1" d="m172.68,93.38c.39.87,1.09,1.62,1.47,2.49.12.27-.2.65,0,.88,1.66,1.99,4.6-2.84,3.92-4.69-.52-1.4-5.52-1.67-5.88-.59-.2.63.22,1.3.49,1.91Z"/>
      <path class="cls-1" d="m166.48,85.75c.17.63.08,1.37.49,1.91.88,1.14,2.92-2.26,2.61-3.23-.4-1.25-2.15-1.48-3.26-.88-.8.43.12,2.04.16,2.2Z"/>
      <path class="cls-1" d="m175.29,84.87c-.93.36-1.77.94-2.45,1.61-1.69,1.7,1.47,3.2,2.94,2.93,1.45-.26,5.36-4.87,2.29-4.99-.94-.04-1.91.1-2.77.44Z"/>
      <path class="cls-1" d="m174.81,83.84c0-2.22,4.24-4.4,5.88-5.87"/>
      <path class="cls-1" d="m171.21,82.67c-.33.1-1.19.54-.98.29.52-.62,3.65-2.55,4.24-2.93.76-.49,1.52-.98,2.29-1.47"/>
      <polyline class="cls-1" points="179.38 82.67 179.38 81.5 179.38 80.62 180.68 78.27"/>
      <path class="cls-1" d="m179.38,77.54c-.93,2.52-.74-.55-.65-.73.41-.87,4.14-2.43,4.57-.88.29,1.03-2.98.77-3.26.88-.32.12-.54.44-.65.73Z"/>
      <path class="cls-1" d="m175.62,76.95c-2.14,1.22-3.13,2.16-2.77-.73.14-1.1.89-1.45,1.96-2.05,1.32-.74,3.12.41,2.61,1.17-.44.65-1.08,1.21-1.8,1.61Z"/>
      <path class="cls-1" d="m225.89,41.01c-.03.21-.49-1.16-.49-2.35,0-1.43,1.13-3.24,2.61-3.81,3.43-1.32,1.88,3.65.98,4.69-1.25,1.44-3,.81-3.1,1.47Z"/>
      <path class="cls-1" d="m233.89,35.58c-1-.45-2.53-.81-2.94-1.91-.56-1.51,2.26-2.75,3.59-2.35,2.6.78,2.03,5.46-.65,4.25Z"/>
      <path class="cls-1" d="m232.59,41.59c-3.35.33-2.14-3.47.33-4.11,2.86-.73,3,1.6,1.31,2.93-.52.41-.94,1.1-1.63,1.17Z"/>
      <path class="cls-1" d="m229.32,43.35c1.46,1.31,1.31,4.08,1.31,5.87"/>
      <path class="cls-1" d="m231.93,43.65c0,2.13-.59,4.07-.98,6.16"/>
      <path class="cls-1" d="m238.14,40.13s-.79,1.19-.33,1.47c.63.38,1.55.17,2.29,0,1.16-.26,4.51-2.71,3.26-4.11-1.35-1.52-4.83,1.57-5.22,2.64Z"/>
      <path class="cls-1" d="m236.67,62.13c-2.05,3.35,3.27,3.24,4.73.88,1.45-2.34-.95-3.73-3.26-2.35-.61.37-1.12.89-1.47,1.47Z"/>
      <path class="cls-1" d="m208.1,79.88c.86,3.93,5.79-1.12,4.57-2.49-1.36-1.53-4.94.8-4.57,2.49Z"/>
      <path class="cls-1" d="m174.64,70.93c1.69.21-.3,2.58,1.8,3.52,2.47,1.11,8.99.67,10.77-1.47.31-.37-.18-1.64,0-2.05.49-1.1,2.42-1.08,2.94-2.93.43-1.55-1.65-2.99-1.96-4.4-.18-.79-.1-2.34-.98-2.93-1.21-.81-3.05-.29-4.24-.29-1.52,0-1.75-2.08-3.26-2.35-3.13-.56-1.64,2.79-3.26,3.52-.29.13-.67-.08-.98,0-1.79.46-2.4,1.79-2.94,3.23-.69,1.87-1.34,5.73,2.12,6.16Z"/>
      <path class="cls-1" d="m175.78,72.99c-.22-.1-.73-.09-.65-.29.6-1.63,8.08-3.08,9.14-1.17"/>
      <path class="cls-1" d="m176.11,63.6c1.86,1.67,5.02,5.46,2.61,7.63"/>
      <path class="cls-1" d="m180.68,62.72c-3,4.05.4,7.79,4.9,8.8"/>
      <path class="cls-1" d="m189.17,87.95c-1.62,0-3.5-.19-4.57-1.47-.29-.35-.46-1.59-.65-1.76-.34-.31-1.01-.24-1.31-.59-.54-.65-1.12-4.06-.65-4.69.35-.47,1.18-.48,1.63-.88,1.18-1.06-1.45-1.4,1.31-2.64"/>
      <path class="cls-1" d="m193.09,73.72c-.57.06-1.31-.51-1.31-1.03,0-.4.88.17,1.31.29,1.03.31.86.64,0,.73Z"/>
      <path class="cls-1" d="m194.07,87.66c-2.48,1.12-5.53-3.83-4.57-4.69.32-.29,1.06.04,1.31-.29.24-.33-.14-.8,0-1.17.7-1.88,1.7-1.65,3.26-2.35"/>
      <path class="cls-1" d="m188.84,80.03c-.45-.4-1.18-.93-.98-1.47.15-.42.94.3,1.31.59.41.32.66.78.98,1.17.23.29,1.03.97.65.88-.76-.17-1.4-.67-1.96-1.17Z"/>
      <path class="cls-1" d="m127.47,92.35c-2.1,0-5.51.44-6.2-2.05-.22-.79.33-1.89,0-2.64-.87-1.96-3.01-3.68-1.63-6.16.97-1.74,3.49-1.74,5.22-2.05,2.01-.36,5.81-3.35,7.51-.29"/>
      <path class="cls-1" d="m123.88,90.01c.22-.39.31-.86.65-1.17.66-.59,5.6-1.42,6.53-.59.69.62.88,1.88,1.31,2.64"/>
      <path class="cls-1" d="m122.25,85.9c3.37,0,5.69-1.43,7.18-4.11"/>
      <path class="cls-1" d="m127.8,86.19c.22.29.44.59.65.88"/>
      <path class="cls-1" d="m101.68,75.04c0-3.66,8.64-5.4,11.43-3.52.44.29.98.49,1.31.88.67.8-.04,2.16,1.31,2.64,1.07.38,2.21.03,2.61,1.47,1.04,3.72-.09,5.53-3.59,7.63-.53.32-5.11,3.04-5.55,2.64-.31-.28,0-.78,0-1.17"/>
      <path class="cls-1" d="m114.09,75.92c-3.03,1.36-1.94,8.08.98,9.39"/>
      <path class="cls-1" d="m108.37,78.42c-.32-.19-.78.04-1.14.15-.21.06.44-.04.65,0,1,.18,1.52.45.49-.15Z"/>
      <path class="cls-1" d="m120.29,75.19c.71.38,2.2.81,2.94.15.39-.35,1.07-2.31.33-2.64-1.68-.75-5.78,1.14-3.26,2.49Z"/>
      <path class="cls-1" d="m122.9,78.27c-.39,1.93,1.9,2.63,2.94,1.47,2.2-2.47-2.32-4.51-2.94-1.47Z"/>
      <path class="cls-1" d="m126.82,70.93c1.45,3.91,6.14-1.24,4.9-2.64-1.3-1.46-5.75.33-4.9,2.64Z"/>
      <path class="cls-1" d="m127.96,75.34c.22.24.66.31.82.59.15.26-.23.67,0,.88,1.37,1.23,4.8-2.31,4.24-3.81-.62-1.67-5.66.27-5.88,1.17-.11.45.49.82.82,1.17Z"/>
      <polyline class="cls-1" points="124.53 74.46 125.19 74.16 126.17 74.75 126.82 75.04"/>
      <path class="cls-1" d="m134.82,77.1c-.47-.24-.93-.59-1.47-.59-.39,0,.64.41.98.59.42.22.82.59,1.31.59.35,0-.51-.43-.82-.59Z"/>
      <path class="cls-1" d="m133.35,69.76c2.4,2.15,4.69,4.91,6.2,7.63"/>
      <path class="cls-1" d="m139.39,70.2c.8.84-.28,2.2,1.47,2.2s3.68-2.27,2.94-3.81c-.67-1.4-6.69-.78-4.41,1.61Z"/>
      <path class="cls-1" d="m146.89,75.19c-.8.48-1.81.69-2.77.73-1.55.07-.94-3.05-.33-3.52.96-.74,4.07-1.54,4.9-.29.18.26.49.61.33.88-.5.86-1.22,1.66-2.12,2.2Z"/>
      <path class="cls-1" d="m72.14,100.42c-1.61-.07-2.5,2.76-.82,3.67,1.41.76,5.05-3.48.82-3.67Z"/>
      <path class="cls-1" d="m216.75,37.49c1.63,3.95,7.33-1.95,2.45-1.47-.45.04-.93.07-1.31.29-.48.29-1.34.69-1.14,1.17Z"/>
      <path class="cls-1" d="m163.54,63.31c-1.7,2.21,1.93,2.69,3.1.59,2.11-3.8-1.63-2.51-3.1-.59Z"/>
      <path class="cls-1" d="m184.92,55.38c-.23.46-.68,1.08-.33,1.47.98,1.06,3.62-.1,4.24-.88,1.62-2.04-1.47-2.58-2.94-1.76-.46.26-.76.73-.98,1.17Z"/>
      <path class="cls-1" d="m126.82,96.46c-2.79,1.51,1.48,2.57,2.61,1.76.65-.47.81-1.07.65-1.76-.31-1.37-2.66-.33-3.26,0Z"/>
      <path class="cls-1" d="m60.88,89.27c.42-1.06-.49-.73-1.63-.73-2.88,0-1.62,1.99,0,1.47.57-.18,1.43-.22,1.63-.73Z"/>
      <path class="cls-1" d="m168.93,75.63h1.31"/>
      <path class="cls-1" d="m162.07,83.55c0-1.07,1.71-1.45,2.61-2.05,2.75-1.85,6.27-2.39,9.14-4.11"/>
      <path class="cls-1" d="m168.93,75.92c2.03-.61,3.94-1.77,5.88-2.64"/>
      <path class="cls-1" d="m188.19,73.87c2.67-1.2,5.49-2.03,8.16-3.23"/>
      <path class="cls-1" d="m187.21,72.11c1.58-1.42,4.76-1.99,6.86-2.93"/>
      <path class="cls-1" d="m108.86,88.25c2.16-.97,8.34.59,11.1.59"/>
      <path class="cls-1" d="m114.74,85.9c1.59-.72,4.87.09,6.53.59"/>
      <path class="cls-1" d="m219.32,28c-.82-.06-2.18-.37-2.13-1.1.04-.66,1.46.07,2.19.12.87.06,2.66-.57,2.61.21-.05.84-1.74.84-2.68.77Z"/>
      <path class="cls-1" d="m216.12,29.05c-2.93.56-7.1,10.65-8.32,13.26"/>
      <path class="cls-1" d="m216.35,26.71c1.96-2.01-1.21-3.16-3.32-2.38-2.42.89-4.93,3.4-6.44,5.29-5.57,6.96-10.15,14.7-14.91,22.13"/>
      <path class="cls-1" d="m211.91,22.06c-.47-6.37-8.57,2.95-9.78,4.51-4.52,5.83-7.97,12.31-12.04,18.4-1.72,2.57-6.24,7.66-7.14,10.74"/>
      <path class="cls-1" d="m206.66,15.61c-.37-1.57-1.72-2.16-3.21-2.76-7.71-3.1-15.4,1.23-21.3,5.8-10.33,8.02-18.22,19.21-25.15,29.73-3.03,4.61-7.35,9.92-8.87,15.14"/>
      <path class="cls-1" d="m193.75,10.97c-2.34-3.6-9.71,2.08-11.76,3.64-1.43,1.09-2.8,2.24-4.12,3.44-5,4.5-8.37,9.78-12,15.2-5.31,7.92-10.39,16.19-14.73,24.57"/>
      <path class="cls-1" d="m186.16,7.98c-.49-2.09-5.73-2.72-7.82-2.24-7.19,1.66-14.71,6.72-20.52,10.79-5.52,3.87-9.52,8.94-13.45,14.06-3.77,4.9-8.33,10-11.17,15.4-3.13,5.95-5.34,12.03-7.96,18.15-2.19,5.13-5.95,9.73-7.51,15.06"/>
      <path class="cls-1" d="m175.38,8.25c1.1-3.78-4.62-2.21-6.67-1.57-5.73,1.78-11.22,5.6-15.28,9.62-3.71,3.68-5.95,8.2-8.94,12.32-3.78,5.2-8.23,10.15-11.28,15.77-4.47,8.25-7.72,16.97-12.65,25.06"/>
      <path class="cls-1" d="m165.7,4.77c-1.2-5.12-7.16-5.21-11.88-3.6-6.25,2.14-13.32,5.33-18.31,9.31-4.47,3.57-7.72,8.02-11.55,12.1-6.92,7.37-13.66,15.02-18.49,23.69-3.88,6.97-4.91,14.64-6.03,22.21"/>
      <path class="cls-1" d="m132.66,12.62c-4.39-1.03-11.93,11-14.29,13.86-5.48,6.66-8.72,13.14-12.28,20.74-3.57,7.62-6.86,15.52-7.41,23.89"/>
      <path class="cls-1" d="m134.3,7c-4.25-3.35-12.98,2.91-16.89,4.44-7.39,2.89-12.39,6.31-18.02,11.38-1.52,1.37-3.52,2.26-5.06,3.61-6.39,5.62-12.72,13.68-16.36,20.98-2.42,4.86-4.74,10.58-1.87,15.58.57.99,1.18,2.28,2.37,2.56"/>
      <path class="cls-1" d="m121.42,8.37c-6.1.36-14.58,7.74-19.27,11.09-6.62,4.73-12.39,10.08-17.97,15.8-6.03,6.18-13.47,11.73-14.06,20.72-.2,3.05,1.86,6.13,3.24,8.77"/>
      <path class="cls-1" d="m200.86,124.96c-6.73,10.79-15.85,20.53-27.88,26.33-7.94,3.83-19.56,5.61-28.09,2.16"/>
      <path class="cls-1" d="m214.11,79.94c1.25,3.91-.14,10.07-.74,13.72-.8,4.93-2.17,9.81-4.05,14.5-.82,2.03-1.7,4.08-2.66,6.13"/>
      <path class="cls-1" d="m189.84,91.16c-.72,6.39-.79,12.67-2.14,19.03-3.23,15.17-9.5,31.29-18.71,44.37-1.53,2.17-2.56,4.03-4.68,5.74-3.21,2.6-11.82,2.98-15.5,1.49-2.53-1.02-2.69-1.76-4.03-3.63"/>
      <path class="cls-1" d="m144.73,155.77c4.4,4.83,12.04,5,16.25,2.44"/>
      <path class="cls-1" d="m171.69,152.24c2.95-2.66,6.5-4.78,8.88-7.98,5.2-7.01,8.78-15.44,12.43-23.13,5.58-11.79,8.38-22.86,10.65-35.5"/>
      <path class="cls-1" d="m78.17,106.95c-.73,1.32-2.16,2.25-2.91,3.6-1.59,2.86-2.35,6.46-3.28,9.49-3.51,11.45-5.1,23.78-4.37,35.66.77,12.42,6.39,24,9.46,35.99,1.67,6.51,2.42,13.05,3.64,19.63,2.27,12.24,5.4,38.32,2.14,56.86"/>
      <path class="cls-1" d="m85.45,111.54c-3.38,0-5.54,6.9-6.19,8.83-2.75,8.23-4.33,16.97-5.1,25.52-.25,2.82-.61,10-.36,12.76,1.09,12.08,7.5,23.71,9.83,35.66,3.72,19.1,3.71,49.88.35,69.01"/>
      <path class="cls-1" d="m77.84,280.78c8.14-12.19,30.7-32.81,39.41-44.81,7.99-11.01,15.71-24.85,28.64-31.95,4.85-2.66,9.84-2.66,15.31-2.66,6.16,0,13.59-.17,18.76,3.55,17.08,12.28,6.42,64.6,1.61,80.17"/>
      <path class="cls-1" d="m175.56,155.34c-4.7-.64-5.28,5.76-5.87,8.72-1.8,9.01,2.66,18.34,8.52,25.69,9.93,12.45,24.21,19.94,36.86,29.94,10.86,8.58,23.59,24.42,29.15,36.25,5.23,11.12,6.26,26.77-8.82,31.96"/>
      <path class="cls-1" d="m185.91,99.09c-2.39,7.24-3.85,14.73-6.95,21.81-3.4,7.75-7.35,15.45-9.99,23.46"/>
      <path class="cls-1" d="m163.97,164c-2,10.83,3.05,25.81,11.86,33.22"/>
      <path class="cls-1" d="m194.59,211.09c10.68,7.82,20.78,17.73,27.81,28.39,3.57,5.42,5.71,11.75,8.3,17.58,5.09,11.47,7.06,19.09.19,30.78"/>
      <path class="cls-1" d="m193.44,230.52c7.39,12.35,20.22,33.93,12.29,49.12-1.6,3.06-5.37,5.59-8.08,7.54"/>
      <path class="cls-1" d="m181.51,101.69c-5.49,15.17-9.74,30.87-16.2,45.7"/>
      <path class="cls-1" d="m159.31,164.75c-1.27,2.1-.22,6.74.07,8.8,1.05,7.36,3.11,14.39,6.62,21.1"/>
      <path class="cls-1" d="m156.07,165.01c1.1,10.91,3.2,27.46-3.58,37.34"/>
      <path class="cls-1" d="m167.86,99.86c-3.62,3.91-5.22,10.79-6.59,15.58-3.35,11.65-8.41,27.03-3.84,38.83"/>
      <path class="cls-1" d="m142.43,102.67c-2.88,2.09-4.15,7.3-5.49,10.35-3.43,7.87-5.6,16.16-8.58,24.17-6.09,16.4-9.69,33.71-12.01,50.86-3.12,23.15-8.58,45.99-16.1,61.3-2.34,4.77-8.32,11.82-14.76,18.93"/>
      <path class="cls-1" d="m125.55,101.11c-6.47,6.98-9.75,16.56-13.4,24.93-2.61,5.99-5.84,11.73-7.99,17.89-5.73,16.41-7.71,33.99-9.54,51.03-1.2,11.13.74,22.22.1,33.37-.53,9.32-2.98,18.36-4.57,27.52"/>
      <path class="cls-1" d="m110.02,104.94c-2.97-1.04-4.98,6.57-5.71,8.17-3.39,7.41-6.5,15.19-8.29,23.05-4.24,18.69-4.06,37.8-3.66,56.79.37,17.53-.52,35.26,1.24,52.72"/>
      <path class="cls-1" d="m163.78,99.83c-2.62.21-4.16,4.88-5.04,6.65-3.6,7.22-7.18,14.6-10.01,22.09-8.7,23-10.78,47.2-16.94,70.71-1.71,6.54-2.82,13.17-6.22,19.21"/>
      <path class="cls-1" d="m158.29,102.11c-4.19,2.33-5.34,10.82-6.7,14.48-2.94,7.93-5.95,15.8-8.62,23.81-2.14,6.46-4.54,13-6.19,19.58-2.34,9.33-2.34,18.97-4.9,28.28-1.9,6.89-3.86,13.73-5.67,20.64-2.04,7.78-4.91,15.63-8.28,23.05-.99,2.17-2.42,4.2-3.02,6.48"/>
      <path class="cls-1" d="m68.17,164.06c-3.01,4.48-4.23,9.95-7.69,14.32-4.37,5.52-10,10.1-15.06,15C23.99,214.18-.45,237.59.27,269.29c.1,4.54,1.24,9.06,2.69,13.38"/>
      <path class="cls-1" d="m70.34,170.71c.4,2.89-4.33,7.52-6,9.57-5.81,7.18-13.41,12.89-20.14,19.26-15.94,15.1-28.59,32.07-34.49,53.22-2.28,8.18-3.89,17.99.15,25.96"/>
      <path class="cls-1" d="m83.47,241.3c-8.33,7.04-14.16,16.81-17.67,26.29-1.77,4.78-3.82,11.31,1.73,14.94"/>
      <path class="cls-1" d="m83.17,234.1c-1.18,2.96-4.24,5.82-6.2,8.22-7.2,8.79-21.09,23.17-14.76,34.26"/>
      <path class="cls-1" d="m79.54,210.9c-3.22,8.03-12.51,13.97-18.46,20.51-8.17,8.99-15.99,18.42-19.86,29.46-1.75,5-4.9,19.16,3.42,21.59"/>
      <path class="cls-1" d="m76.12,189.2c-3.01,3.55-5.56,7.39-8.85,10.76-15.67,16.06-32.51,30.48-42.24,50.46-4.24,8.71-10.04,20.02-5.73,29.47"/>
      <path class="cls-1" d="m174.88,153c3.7-1.13,7.26-2.96,10.66-4.66,14.95-7.49,25.24-16.41,33.21-33.27"/>
      <path class="cls-1" d="m251.24,100.96c34.03-.52,21.06-35.52.78-52.24"/>
      <path class="cls-1" d="m247.1,99.38c9.45,1.84,16.97-7.29,18.71-13.92,1.52-5.8-2.59-22.18-11.62-30.19"/>
      <path class="cls-1" d="m248.28,97.94c14.63-3.37,13.12-30.88,6.68-39.47"/>
      <path class="cls-1" d="m229.92,68.17c6.18,1.85,2.61,23.56,1.61,26.91-4.36,14.57-17.34,23.85-35.13,25.85"/>
      <path class="cls-1" d="m225.37,76.05c3.79,7.45.14,20.32-2.01,24.11-4.89,8.59-11.04,14.83-21.49,17.95"/>
      <path class="cls-1" d="m76.91,190.88c-.7-.08-1.43,1.8-1.64,2.1-.72,1.06-1.5,2.08-2.28,3.1-3.33,4.36-8.27,7.32-12.32,11.12-1.51,1.42-2.72,3.08-4.17,4.56-1.53,1.56-3.29,2.94-4.83,4.49-1.44,1.45-2.66,3.06-4,4.58-2.02,2.29-4.23,4.41-6.16,6.78-6.42,7.86-11.14,16.77-14.82,25.89-.94,2.34-2.38,4.56-3.14,6.95-2.07,6.59-1.83,13.43-.17,20.04"/>
      <path class="cls-1" d="m80.44,209.8c-2.83,5.1-7.45,9.17-11.56,13.52-1.29,1.36-2.32,2.99-3.5,4.4-1.18,1.41-2.56,2.7-3.79,4.08-1.91,2.13-3.54,4.46-5.34,6.66-2.01,2.46-4.42,4.74-6.28,7.28-5.07,6.94-7.95,15.59-7.43,23.75.18,2.8,1.17,5.27,2.26,7.88"/>
      <path class="cls-1" d="m142.27,104.46c-.8,2.15-2.11,4.05-2.98,6.17-1.5,3.66-2.56,7.47-4.2,11.09-1.71,3.77-3.91,7.37-5.6,11.14-3.92,8.74-7.09,17.8-9.69,26.93-1.61,5.65-4.04,11.21-5.06,16.99-.31,1.73-.27,3.5-.49,5.24-.33,2.64-.97,5.24-1.34,7.87-.45,3.12-.54,6.28-.98,9.4-.51,3.65-1.42,7.27-1.83,10.93-.38,3.31-.13,6.77-.31,10.11-.14,2.58-1.25,4.99-1.89,7.48-.46,1.79-.5,3.64-1.04,5.41"/>
      <path class="cls-1" d="m126.28,101.77c-1.43.43-3.04,5.73-3.71,6.94-1.86,3.34-4.08,6.55-5.84,9.94-.98,1.89-1.41,3.89-2.31,5.79-7.92,16.57-11.06,34.48-14.75,52.11-.62,2.98-2.1,5.68-2.68,8.63-1.22,6.19-1.89,12.54-2.57,18.79"/>
      <path class="cls-1" d="m78.13,106.95c-2.71-1.03-4.87,3.63-5.85,5.25-3,4.91-5.46,10.58-7.13,15.99-2.05,6.64-1.73,13.98-.29,20.66.59,2.77.66,5.69,1.32,8.44,1.38,5.73,4.03,11.31,6.28,16.79.81,1.96,1.14,4.15,1.67,6.19.49,1.87,1.41,3.71,1.81,5.59.69,3.3,1.1,6.43,2.24,9.69"/>
      <path class="cls-1" d="m190.34,226.52c2.79,3,4.72,6.87,7.11,10.18,1.66,2.3,3.61,4.42,5.15,6.8,1.63,2.52,2.56,5.38,3.77,8.11,3.61,8.16,6.22,17.48,2.62,26.15-1.02,2.45-2.91,4.5-4.69,6.37-1.58,1.66-3.34,2.85-5.35,3.89"/>
      <path class="cls-1" d="m182.04,205.96c1.47.71,2.58,1.76,3.92,2.62,2.69,1.72,5.69,3.42,8.08,5.47,1.07.92,2.07,1.95,3.19,2.82,6.91,5.41,12.02,12.04,16.99,18.93,6.23,8.63,11.37,17.46,14.89,27.29,2.06,5.76,4.34,12.02,4.13,18.15-.08,2.27-.24,4.02-2.14,5.63"/>
      <path class="cls-1" d="m168.75,153.24c.89.76,3.61-.6,4.61-.77,4.13-.7,8.28-1.17,12.32-2.27,3.72-1.01,7.06-2.48,10.43-4.2,5.22-2.67,10.26-5.39,14.26-9.5,3-3.08,5.27-6.88,7.17-10.58,1.9-3.7,2.9-7.31,2.6-11.4-.01-.16-.12-.3-.18-.45"/>
      <path class="cls-1" d="m172.79,167.99c1.8,13.21,11.39,23.63,20.68,32.26,11.94,11.1,25.02,21.05,39.16,28.95,7.67,4.28,16.11,6.72,23.5,11.59,12.34,8.14,20.83,20.32,24.34,34.98.52,2.16.93,4.41.72,6.62-.18,1.96-1.23,3.73-1.85,5.6"/>
    </g>
  </g>
</svg>