<?xml version="1.0" encoding="utf-8"?>
<!-- Generator: Adobe Illustrator 27.1.1, SVG Export Plug-In . SVG Version: 6.00 Build 0)  -->
<svg version="1.1" id="scroll" xmlns="http://www.w3.org/2000/svg" xmlns:xlink="http://www.w3.org/1999/xlink" x="0px"
	 y="0px" width="150" height="150" viewBox="0 0 1280 1268" style="enable-background:new 0 0 1280 1268;" xml:space="preserve">
<g transform="translate(0.000000,1268.000000) scale(0.100000,-0.100000)">
	<path id="scroll-left" class="scroll-left" d="M5655.5,9337.4c-4,2.6-21.3,13.8-38.7,24.9s-41.7,24.8-54.3,30.3c-12.3,5.8-25.9,12.1-29.3,14.2
		c-12.4,7.6-89.9,29.7-124.1,35.5c-71.5,12.2-183.2,0.8-256.2-26c-157.4-57.5-283.2-184.9-335.3-339.6c-17-50.9-27.4-130-25-189.9
		c4.4-99.7,32.1-184.2,91.3-276.7c25.3-39.5,120.8-130.2,162.2-154.1c42-24.5,77.4-40.9,115.5-53.4c60.8-20.4,78.6-27.2,111.8-42.2
		c17.9-8.1,37.6-18.5,43.2-22.6c5.6-4.7,19.2-13.5,30-20.8c25.1-16.1,64-53.2,80.4-75.9c6.9-9.6,17.6-23.9,23.6-32
		c15.7-19.7,35.9-59.6,62.8-123.8c23.3-54.8,28.5-67.4,57.5-141.9c8.8-22,26.6-66.3,39.9-98.5c13.3-32.2,29.2-70.5,34.7-85.2
		c19.5-50.6,37.4-95.5,61.7-153.6c25.9-62,27.2-65.7,36.1-90.1c3-8.8,19.8-50.3,37-92.2c17.2-41.9,37.9-91.9,45.4-111.4
		c7.8-19.3,18.2-45.2,22.8-57.2c4.9-12.4,16.2-39.8,25-61.1c16.8-40.4,26.9-65.4,61-151.2c11-27.7,27.6-68.4,36.4-89.8
		c9.1-21.7,23.4-57.2,31.8-78.9c8.8-22,29.9-74.7,47.4-116.9c17.8-42.5,33.4-81,34.7-85.2c1.3-4.8,7.2-19.3,12.4-32.6
		c5.5-12.9,32.1-79.2,59.7-146.4c27.3-67.5,57.1-140.4,65.9-161.7c17.2-41.3,37-91,41.9-104.5c1.6-4.5,13.7-34.3,26.9-66.6
		c24.3-58.7,42.2-103,61.7-153.6c5.5-14.8,20.5-50.9,33.1-80.7c12.6-29.8,28.8-69,35.7-87.3c7.2-18.1,25.3-62.7,39.9-98.5
		c25.6-61.7,33.7-81.9,59.8-148.2c5.9-15.1,26.6-66.9,46.4-114.8c54.8-134,93.1-228,108.1-267.2c7.8-19.3,28.3-70.2,45.8-112.3
		c17.8-42.5,33.4-81,34.7-85.2c7.2-19.3,27.3-69.9,51-126.2c35-83.7,44.4-107.5,47.7-117.2c1.3-4.2,17.2-43.1,35.4-86.4
		c17.8-43.1,33.5-84.1,35.5-90.7c1.4-6.7,3.6-11.2,4.8-9.9c0.9,0.9,4.1-5.1,6.4-13.8c2-8.5,17.3-46.7,33.2-85
		c26.2-62.9,35-84.3,66.8-163.9c5.2-13.3,17.2-41.9,25.9-63.2c17.2-40.6,37.3-90.7,41.9-104.5c1.3-4.2,16.9-42.8,34.7-85.2
		c17.5-42.2,38.3-92.8,45.8-112.4c7.8-19.3,18.2-45.2,22.8-57.2c4.9-12.4,16.2-39.8,25-61.1c9.1-21.7,21.1-50.3,26.3-64.2
		c5.5-13.6,10.7-25.6,11.6-26.5c3.1-3,19.1,15.7,24.2,28c6.3,15.4,5.5,33.3-2.8,62.6c-13.1,46.8-35,131.8-38.1,145.4
		c-1.1,7.6-3.1,14.2-4,15.1s-11,39-22.8,84.6c-11.5,45.4-23.3,90.4-26.2,99.2c-2.7,9.1-8.4,29.9-12.1,46.6
		c-3.8,16.6-8.1,33.3-9.5,36.9c-1.6,3.3-6.3,21.4-10.7,39.9s-8.8,33.9-9.7,34.8s-7.3,24.2-13.8,51.7c-6.5,27.5-12.9,50.8-13.5,51.4
		c-0.6,0.6-7,23.9-13.5,51.4c-6.5,27.5-12.9,50.8-13.5,51.4c-0.9,0.9-4.6,13.3-8,27.8c-8.5,36-32.1,124.9-38.1,145.4
		c-2.7,9.1-12.4,43.8-21.1,77.7c-21.9,82.5-36.7,138.8-45.4,170.8c-8.4,31.7-22.5,83.1-28.6,107.3c-2.4,9.4-8.1,31.4-12.8,49
		c-4.7,17.5-14.5,54.7-21.9,83.1c-7.4,28.4-15.5,58-17.8,66.8c-4.7,16.9-24.5,91-46.1,172c-7.4,28.4-16.8,63.5-20.8,78
		c-11.8,43.8-20.9,79.8-24,94.6c-1.4,7.9-3.7,14.8-4.7,15.7c-1.2,1.2-5.9,17.5-10.4,36.6c-4.4,19.1-9.1,35.4-9.7,36
		c-0.9,0.9-7,23.9-13.5,51.4c-6.5,27.5-12.9,50.8-13.5,51.4c-0.9,0.9-5.6,16.6-10,35c-4.4,17.8-9.1,36.6-10.8,41.1
		c-1.3,4.8-11.1,40.8-21.5,80.4c-10.7,39.9-22.5,84.3-26.5,98.8c-3.7,14.8-9.8,37.8-13.5,51.4c-3.1,13.6-10.8,41.1-16.2,61.1
		s-16.1,60.5-24.2,90.1c-7.4,29.6-18.2,69.5-23.9,88.6c-5.4,19.3-13.7,49.9-18.5,68c-9.4,36.3-26.9,101-30.9,116.1
		c-1.7,5.1-11.1,41.4-21.5,80.4c-10.4,39-22.2,82.8-26.2,97.3c-3.7,14.8-10.1,38.1-13.5,52c-14.3,58.1-19.1,68-46.8,94.4
		c-24.6,23.4-57.8,46-136.6,93c-18.5,11.1-38.6,23.7-44.8,27.8c-5.6,4.1-19.5,12-30.6,17.8c-30.8,15.7-84.5,54.8-115.6,84.4
		c-31.8,30.2-74.5,82.7-88.9,109.4c-5.4,9.9-12.7,22.2-15.9,27.6c-3.5,5.1-9.5,16.2-13.1,24.9c-3.9,8.4-7.7,16.2-8.7,17.1
		c-0.9,0.9-5.2,11.4-9.7,24.1c-4.3,12.4-18.5,47.3-31.2,77.7c-22.6,53-43.1,103.9-49,120.8c-1.3,4.2-25.7,67.2-54.4,139.5
		c-90.4,230.2-182.9,479.5-203.8,549.9c-29.6,100-31.7,180.9-6.2,258.2c16.1,49.4,40.9,89.9,92.7,149.9c33.7,39.8,49,60.9,62.9,86.8
		c21.8,42.2,41.6,100.6,50.1,148.9c9.8,55.9,5.9,152.9-9.7,213.4c-4.4,17.8-36.8,108-38,106.8c-0.9-0.9-4.7,6.9-8.9,16.8
		c-4.5,10.2-10.6,22.6-14.4,27.3c-3.5,5.1-17.7,25.7-31.9,45.8C5735.9,9263.4,5679.3,9321.9,5655.5,9337.4z M5655.4,9148.1
		c8.2-12.6,18.7-27.8,23.1-33.8c11-15.2,39-87.6,46.6-122.1c10.2-43.6,12-87.9,5-135.3c-8-55.3-14.8-78-39.1-127.9
		c-16.8-35.1-23.8-45-56.1-80.2c-48.3-52.7-59.6-62.1-98.6-85c-129.9-75.4-274.6-77.9-405.8-6.6c-47.5,25.6-108.6,83.7-138.8,131.9
		c-91.3,145-87.4,326.4,9.4,457c48.3,65.1,120.2,120.2,190.8,145.7c82.9,29.8,185.2,30.6,264.1,1.8c16-5.7,32.5-11.3,36.5-12.2
		c8-2.2,75-42.8,94.3-57C5604.8,9211.1,5638,9174.2,5655.4,9148.1z M6428.7,6722.6c8.3-27.5,8-39.1-1.3-70.6
		c-8.7-29.7-37.4-61.2-67.5-73.5c-40.7-15.9-96-6.1-126.6,23c-20.6,19.6-35.2,56-35.7,88.6c-0.4,38.9,17.5,77.7,44.4,95.5
		c34.1,22.8,63.5,28.7,100.5,20.2C6382.7,6796,6417,6763.3,6428.7,6722.6z"/>
	<g>
		<path d="M6345,6784.3c-26.7,8.8-37.9,8.2-64.1-2.5c-23.8-9.4-38-23.8-49.9-49.3c-16.7-35.7-16.7-35.7,84.2-33.2
			c49.9,1.3,91.5,3.2,92.4,4.2c4.1,4.4-14.2,44.4-26.7,58.7C6371.1,6773.1,6361.8,6779,6345,6784.3z"/>
		<path d="M6315.7,6678c-52.9-1.3-90.9-4.4-91.7-7.8c-4-21.1,35.5-69.4,63.4-77.5c15.9-4.5,48.5-3.3,63.6,1.9
			c17.8,6.2,48.8,42.6,54.1,63.8c2.8,10.4,4.1,19.3,3.1,20.2C6407,6679.7,6365.6,6679.3,6315.7,6678z"/>
	</g>
	<g id="scroll-right" class="scroll-right">
		<path d="M7483.3,9393.2c-92.1,67.4-202.2,101.4-319.6,99.6c-103.7-1.7-198.2-30.6-286.9-88.2c-33.2-21.2-45.1-31.9-90.2-79.3
			c-45.1-47.4-55.1-59.8-74.9-94.4c-23.6-40.5-50-103.2-57.2-133.2c-26.3-115.1-22.1-219.4,12.4-321c4.6-13.3,9.1-23.5,10-22.6
			s2.8-3.3,4.2-9.9c7.8-33,71.6-125.1,117.2-169c11.5-11,26.9-28.5,34.5-38.7c7.6-10.8,17.4-24.2,21.7-29.6c4.4-6,13.8-26.7,21-46.6
			c11.4-29.8,13.9-45.9,14.3-94.9c0.7-63-5-128.2-14.5-182.7c-7.8-40.7-76.7-262.4-144.7-463.2c-32.8-97-43-127.1-67-200.4
			c-8.2-24.9-24.9-74.3-37.7-109.6c-12.5-35.6-24.1-69.7-26.1-76.1c-9.2-34-26.3-78.9-43.4-113.1c-16.2-32.7-25-45.1-60.5-84.9
			c-35.8-40.2-46.2-49.9-74.6-68.5c-18.3-11.7-44.9-31-58.9-42c-13.7-11.3-28-22-31.9-24.2c-10.2-5.7-2.7-11.6,67.3-49.7
			c53.7-29.7,66.1-37.9,96-66.3c31.5-29.3,35.6-35,46.3-60.6c6.5-15.1,12.6-39.2,14.1-53.2c1-14,3.4-25.2,4.9-25.4
			c2.7,0.4,56.8,148.4,57.7,159.4c0.5,3.1,13.3,40.2,28.3,82.9s32.7,91.8,38.3,109c20.3,62,34.2,102.2,55,160.2
			c11.4,31.9,23,66,25.5,74.9c7.3,23.9,8.4,27,32.6,96.1c12.5,35,28.4,81.7,35.7,103.8c26.9,80.1,39.6,117.9,62.3,183.6
			c12.8,37.1,25.2,73.4,27.5,80.7c11.8,38.6,97.5,296.7,116.5,351.1c31.8,91.5,100.9,184.2,176.6,237
			c45.5,31.6,71.6,45.3,136.1,69.5c43.1,16.6,114.1,48.2,115.8,51.9c0,0.6,13.4,9.8,29.6,20.5c39.8,26.3,103,92.1,126.3,132.2
			c9.3,15.5,19.3,32.1,22.2,36.5c2.6,4.6,11,21.6,18.2,38.5c38.6,87.4,55.4,192.5,44.4,276.5c-10.2,78.6-36.4,164-60.1,197.8
			c-2.2,3.3-8.6,14.7-14.3,25.5c-13.4,25.8-64.6,88.1-93.9,115.4C7525.8,9360.5,7501,9380.6,7483.3,9393.2z M7524.3,9159
			c23.6-42,35.6-71.2,44.2-111.5c35.4-161.9-30.6-329.4-167.6-424.8c-34.7-24-43.1-28.5-91.9-46.8c-63.3-24.1-128.9-29.4-201.3-17
			c-98.4,17-182.4,64.2-243.3,137.5c-112,133.8-125.7,314.2-36,469.9c66.7,116.4,195.7,192.1,330.7,194.3
			c69,1.4,133-13.1,199.9-45.1c33.6-15.9,60-36.8,105.6-82.5C7497.3,9200,7509.3,9185.1,7524.3,9159z"/>
		<path d="M6092.4,6578c-2.1-2.2-15.6-58.2-21.8-90.3c-2.9-16.2-14.8-78-26.3-138.2c-11.3-59.9-21.5-111.3-22.4-114.1
			c-0.8-2.8-4.3-20.8-7.8-40.1c-3.8-19.6-13.7-73.7-23.1-120.5c-15.4-78-21-107.7-39-203.4c-3.5-18-13.4-69.7-22.3-115.3
			c-29.6-151.7-62.7-322.6-71.1-365.8c-9.4-48.6-13.7-71.9-27.7-142.8c-18.1-92.1-29.1-150.5-32.5-172.2c-1.8-11.9-4-22.3-5.2-23.6
			c-1.2-1.2-3.4-11.6-5.2-23.6c-3.4-21.7-14.4-80.1-32.5-172.2c-16.7-83.8-20.8-105.5-43.6-224.5c-5.6-29.7-13.4-70.3-17.5-90.2
			c-7.5-38.5-20.4-105.8-30.3-159.3c-3.5-18-26.3-137.6-51.1-266c-69.1-361.1-66.2-343.1-61-378.3c2.3-17,6-32.4,8.2-34.5
			c10.9-10.4,27.8,18.7,44.6,76.3c8.9,31.3,50.1,159.5,87.4,273.1c27.1,82.2,48.6,149.1,97.3,302.2c13.8,42.7,38.4,119,55,170.3
			c46.3,141.8,63.2,194.5,91.7,284.4c14.7,45.4,44,136.2,65.8,201.6c21.5,65.7,50.8,155.3,64.6,199.1
			c13.8,43.9,39.2,121.2,56.5,171.8c17.3,50.7,41.6,124.9,54.6,164.8c13,39.9,34.7,105.9,48.9,146.4c61.2,177.4,73,228.6,71.9,310.4
			c-1.3,73.6-17,141.4-44.4,191.8c-4.8,8.7-11.2,21.3-14.4,28.5c-2.9,6.9-11,24.1-17.7,37.6c-14.1,29.5-26.4,59-46.3,110.5
			c-31.9,83.8-79.4,204.9-80.7,206.1C6094.5,6579,6093.3,6578.9,6092.4,6578z"/>
	</g>
</g>
</svg>
