<?xml version="1.0" encoding="UTF-8"?>
<svg id="_レイヤー_2" data-name="レイヤー 2" xmlns="http://www.w3.org/2000/svg" viewBox="0 0 146.45 595.76">
  <g id="_レイヤー_1-2" data-name="レイヤー 1">
    <g id="scroll-right">
      <path d="m117.72,6.28C107.7.82,96.34-1.11,84.72.61c-10.26,1.53-19.25,5.64-27.28,12.52-3.02,2.54-4.06,3.75-7.9,9.05s-4.67,6.65-6.18,10.34c-1.81,4.32-3.6,10.89-3.92,13.96-1.09,11.75.69,22.04,5.45,31.66.63,1.26,1.21,2.21,1.29,2.11s.32.29.55.93c1.21,3.17,8.75,11.46,13.84,15.21,1.29.94,3.04,2.47,3.92,3.38.89.97,2.04,2.17,2.54,2.65.52.53,1.72,2.47,2.69,4.35,1.52,2.81,1.99,4.37,2.66,9.22.9,6.23,1.19,12.78.96,18.3-.24,4.13-4.16,27.03-8.25,47.82-1.98,10.05-2.6,13.16-4.01,20.75-.49,2.57-1.49,7.69-2.3,11.36-.77,3.69-1.47,7.23-1.58,7.89-.46,3.49-1.57,8.16-2.81,11.78-1.18,3.45-1.89,4.8-4.88,9.21-3.02,4.45-3.93,5.55-6.5,7.78-1.66,1.4-4.04,3.66-5.29,4.93-1.21,1.3-2.49,2.55-2.85,2.82-.94.7-.12,1.19,7.33,4.04,5.71,2.24,7.05,2.89,10.39,5.31,3.51,2.49,3.99,3,5.38,5.4.84,1.41,1.76,3.73,2.1,5.09.28,1.37.67,2.45.82,2.46.27-.07,3.68-15.46,3.63-16.56.01-.31.79-4.16,1.72-8.59s2.03-9.53,2.37-11.31c1.2-6.41,2.05-10.58,3.34-16.61.71-3.32,1.41-6.85,1.54-7.76.41-2.47.48-2.79,1.96-9.95.78-3.63,1.74-8.47,2.18-10.76,1.61-8.29,2.38-12.2,3.76-19.02.78-3.85,1.54-7.61,1.66-8.36.66-3.99,5.76-30.7,6.93-36.34,1.95-9.49,7.58-19.59,14.39-25.81,4.09-3.73,6.5-5.44,12.58-8.68,4.05-2.21,10.68-6.28,10.8-6.67,0-.06,1.2-1.15,2.66-2.42,3.6-3.13,9-10.48,10.78-14.77.72-1.65,1.49-3.44,1.72-3.91.2-.49.81-2.28,1.3-4.06,2.67-9.17,2.96-19.81.77-28-2.04-7.65-5.77-15.78-8.56-18.82-.26-.3-1.04-1.34-1.76-2.34-1.67-2.38-7.56-7.89-10.83-10.2-1.49-1.03-4.21-2.69-6.13-3.71Zm7.14,22.68c2.89,3.85,4.46,6.59,5.85,10.47,5.64,15.58,1.3,33.06-11.02,44.32-3.12,2.84-3.9,3.39-8.5,5.84-5.96,3.22-12.39,4.61-19.74,4.33-9.98-.39-18.92-3.96-25.93-10.43-12.87-11.79-16.6-29.5-9.74-46.11,5.08-12.42,16.87-21.62,30.23-23.61,6.83-1.05,13.36-.45,20.41,1.85,3.54,1.13,6.43,2.86,11.55,6.79,3.68,2.84,5.06,4.16,6.89,6.55Z"/>
      <path d="m16.86,303.65c-.18.24-.78,5.98-.97,9.24-.08,1.64-.44,7.92-.79,14.05-.33,6.09-.67,11.32-.72,11.6s-.16,2.12-.25,4.07c-.12,1.99-.38,7.48-.71,12.25-.5,7.93-.67,10.95-1.19,20.67-.11,1.83-.42,7.09-.7,11.72-.94,15.43-1.98,32.81-2.24,37.19-.29,4.94-.41,7.3-.87,14.52-.58,9.36-.9,15.3-.95,17.49-.02,1.21-.1,2.26-.2,2.4s-.18,1.2-.2,2.4c-.05,2.2-.37,8.13-.95,17.49-.56,8.53-.67,10.73-1.37,22.83-.17,3.01-.41,7.15-.55,9.17-.24,3.92-.64,10.76-.91,16.19-.11,1.83-.8,13.99-1.56,27.05-2.1,36.71-2.05,34.88-1.07,38.3.45,1.65,1.02,3.13,1.26,3.31,1.22.88,2.51-2.22,3.42-8.15.48-3.22,2.87-16.47,5.07-28.22,1.61-8.51,2.85-15.42,5.67-31.24.81-4.41,2.24-12.31,3.22-17.6,2.73-14.66,3.71-20.12,5.35-29.4.86-4.69,2.57-14.08,3.87-20.85,1.26-6.79,3-16.06,3.79-20.59s2.29-12.53,3.34-17.78,2.48-12.93,3.24-17.05,2.05-10.95,2.93-15.16c3.74-18.4,4.23-23.62,3.04-31.72-1.09-7.28-3.54-13.79-6.93-18.43-.59-.8-1.39-1.97-1.8-2.64-.38-.65-1.4-2.24-2.25-3.49-1.79-2.73-3.4-5.5-6.04-10.35-4.27-7.89-10.57-19.27-10.71-19.37-.07-.05-.19-.03-.27.07Z"/>
    </g>
  </g>
</svg>