<?xml version="1.0" encoding="UTF-8"?>
<svg id="_レイヤー_2" data-name="レイヤー 2" xmlns="http://www.w3.org/2000/svg" viewBox="0 0 189.14 334.31" width="100" height="100">
  
  <g id="_メイン" data-name="メイン">
    <g>
      <path d="m132.28,125.86c.84-1.72-1.23-2.57-2.11-.82-2.72,5.36-5.5,10.7-8.25,16.04-.51.99-1.03,1.99-1.48,3.01-.37.86-1.11,2.03.04,2.55,1.11.5,1.62-.79,2.05-1.64,3.59-7.03,6.16-12.12,9.75-19.15Z"/>
      <path d="m78.84,323.93c-.77-1.94-1.76-3.82-2.86-5.6-3.03-4.91-4.03-10.39-4.71-15.96-.42-3.4.55-6.38,3-8.81,2.38-2.36,4.7-4.8,7.22-7.01,4.97-4.38,9.16-9.39,12.84-14.89,3.43-5.12,5.25-10.7,5.73-16.86.55-6.97-.17-13.54-3.26-19.99-3.21-6.69-3.02-13.29,3.02-18.72.41-.37.69-.88,1.06-1.3,5.06-5.77,7.79-12.34,8.1-20.14.34-8.53,1.61-16.94,5.75-24.7,3.68-6.91,6.77-14.13,10.46-21.04,12.61-23.57,23.7-47.87,34.59-72.26,4.84-10.85,9.25-21.89,13.44-33.02,4.63-12.31,9.99-24.31,15.18-36.39.44-1.03.95-1.97.68-3.19-.51-2.32-1.65-3.4-4.34-3.87-2.75-.48-3.55-.16-5.12,2.45-5.25,8.75-10.46,17.53-15.68,26.3-10.78,18.15-21.55,36.32-32.33,54.47-12.71,21.4-25.36,42.84-38.18,64.17-3.02,5.02-5.47,10.45-9.34,14.91-7.09,8.15-15,15.47-23.79,21.74-4.16,2.97-8.68,4.18-14.17,2.83-13.05-3.21-25.25-.63-36.24,7.21-3.15,2.24-5.64,5.16-6.97,8.75-5.04,13.56-3.63,26.42,5.01,38.16,9,12.22,26.9,13.67,37.58,2.65-2.28,4.66-2.12,9.4-1.43,14.37,1.21,8.74,4.24,16.83,8.39,24.47,4.41,8.11,7.29,16.46,7.78,25.82.39,7.55,2.37,14.93,6.31,21.57,2.32,3.91,5.7,5.18,9.12,3.58,3.48-1.63,4.83-5.54,3.17-9.7Zm-14.67-121.88c.91-4.81,2.84-9,5.88-12.77,5.69-7.08,11.25-14.23,19.08-19.23,3.11-1.99,6.51-3.17,9.83-4.6,1.39-.6,2.04-.07,2.46,1.25,1.39,4.34,1.73,8.78.98,13.25-.99,5.93-2.39,11.79-4.43,17.44-4.15,11.47-11.54,20.31-22.29,26.19-3.55,1.94-7.18,3.76-10.86,5.43-6.39,2.9-12.46,6.22-17.23,11.58,2.48-4.34,4.96-8.67,7.43-13.02,4.53-7.97,7.45-16.55,9.15-25.51Zm10.73,128.96c-1.89.99-4.03.45-5.47-1.6-2.19-3.13-3.54-6.67-4.55-10.32-1.39-5-2.38-10.09-2.56-15.28-.19-5.43-1.61-10.45-4.03-15.28-2.51-5-4.83-10.09-7.29-15.12-3.07-6.27-4.12-13.06-4.9-19.86-.44-3.85.72-7.47,3.19-10.59,2.81-3.56,6.14-6.48,10.25-8.49,5.4-2.65,10.84-5.22,16.15-8.03,12.89-6.82,21.37-17.33,25.51-31.28,1.31-4.42,2.34-8.92,3.33-13.43,1.12-5.14.78-10.25-.47-15.37-1.35-5.56-2.84-11.11-3.41-16.83-.07-.69-.15-1.41-.4-2.05-.31-.79-1.04-1.07-1.55-.29-1.13,1.72-2.55,3.37-1.38,5.74.67,1.37,1.04,2.89,1.5,4.36,1.87,6.02,2.04,4.74-3.1,6.75-7.9,3.08-14.32,8.1-19.81,14.39-4.41,5.05-8.61,10.29-13.04,15.33-1.38,1.57-1.91,3.27-2.25,5.25-1.02,6.06-1.91,12.17-3.46,18.1-1.34,5.15-4.28,9.71-7.08,14.23-2.35,3.8-5.03,7.4-7.59,11.07-1.14,1.64-2.71,2.81-4.47,3.71-9.21,4.72-20.36,2.59-27.02-5.43-7.99-9.62-9.92-20.68-7.21-32.72,1.34-5.96,4.8-10.27,9.96-13.38,9.82-5.93,20.46-7.94,31.45-5.06,6.11,1.6,11.19.41,15.81-2.85,10.2-7.2,19.65-15.42,27.05-25.51,4.6-6.28,8-13.44,11.97-20.18,5.11-8.67,10.25-17.33,15.37-25.98.28-.48.56-.99.93-1.39.53-.56,6.9-11.78,7.31-12.47,5.83-9.87,11.71-19.72,17.57-29.57,6.5-10.94,12.99-21.88,19.5-32.81,6.65-11.17,13.33-22.32,20.01-33.48.28-.47.65-.88,1.29-1.73-.06,2.5-.98,4.24-1.69,5.99-11.62,28.48-23.29,56.94-34.94,85.4q-1.41,3.44-4.75,1.83c-2.27-1.09-4.53-2.2-6.81-3.25-.55-.26-1.21-.04-1.47.44-.26.49-.06,1.18.46,1.47,2.08,1.15,4.19,2.22,6.3,3.32q3.07,1.6,1.98,4.9c-.21.63-.72,1.36.05,1.88,1.02.68,1.46-.26,1.92-.9,3.2-4.5,4.82-9.76,6.87-14.78,9-22,17.9-44.04,26.84-66.06,2.58-6.35,5.17-12.69,7.77-19.03.25-.62.42-1.53,1.27-1.4,1.14.18,1.01,1.23.81,2.01-.31,1.21-.74,2.41-1.27,3.55-9.17,19.66-16.18,40.21-24.78,60.1-6.16,14.24-12.71,28.31-19.1,42.46-.34.76-5.23,10.86-5.51,11.42l-4.12,7.9c-7.66,13.83-13.99,28.34-21.18,42.41-2.13,4.17-2.78,8.77-3.35,13.36-.41,3.33-.98,6.66-1.11,10-.24,6.51-2.88,11.81-7.31,16.44-2.71,2.83-5.02,5.98-6.78,9.53-1.74,3.51-2.06,6.91.07,10.36.37.59.62,1.26,1.02,1.83,4.6,6.6,5.21,13.95,4.28,21.68-1.11,9.28-5.86,16.48-12.62,22.5-2.7,2.4-5.8,4.37-8.75,6.48-4.82,3.45-7.73,7.65-7.44,14.05.34,7.4,1.54,14.42,5.33,20.87,1.06,1.8,2.18,3.6,2.73,5.65.62,2.31-.08,4.16-1.81,5.07Z"/>
      <path d="m50.08,224.61c-2.49,5.84-6.44,11.38-11.83,15.81-4.31,3.55-9.18,5.22-14.81,4.08-2.11-.43-3.98-1.3-5.46-2.9-7.46-8.04-12.77-16.97-11.88-28.51.14-1.83.22-3.73,1.06-5.3,3.51-6.59,8.17-12.12,15.76-14.02,4.73-1.19,9.57-2.09,14.5-1.98,4.57.11,8.7,1.43,12.52,4.08,5.78,4.01,6.88,9.55,5.65,15.88-.86,4.43-3.01,8.4-5.51,12.84Zm-2.3-1.07c.83-1.61,1.63-3.24,2.51-4.82,1.7-3.04,2.19-6.38,1.95-9.73-.37-5.09-2.88-9.25-7.54-11.23-5.42-2.3-11.22-3.09-17.22-2.33-4.72.59-8.54,2.64-11.56,6.1-7.46,8.56-9.62,17.88-3.54,28.03,1.94,3.24,4.08,6.33,6.54,9.19,2.62,3.04,6,3.92,9.83,3.31,3.23-.52,6.1-1.86,8.58-4.07,4.55-4.05,8.14-8.79,10.46-14.45Z"/>
      <path d="m90.68,266.85c-3.69,6.83-7.88,10.97-13.85,13.08-10.3,3.64-21.6-1.71-25.23-12.01-1.4-3.97-2.27-8.09-2.59-12.28-.4-5.12,1.12-9.84,4.52-13.57,3.91-4.28,8.77-7.43,14.56-8.64,6.26-1.3,11.92.2,16.82,4.38,2.03,1.73,3.72,3.78,5.49,5.76,2.5,2.79,3.48,6.11,3.31,9.67-.26,5.19-1.44,10.22-3.03,13.6Zm-36.04-20.03c-3.59,6.91-3.62,15.15-.08,21.72,5.69,10.56,18.64,13.02,27.8,5.28,8-6.76,10.39-18.97,5.44-28.19-2.47-4.61-6.06-7.95-11.24-9.35-8.57-2.32-17.45,1.95-21.92,10.55Z"/>
      <path d="m128.21,126.76c5.03-.17,9.23-3.89,10.17-9,.92-5.02-2.03-10.35-6.78-12.24-5.22-2.08-13.2-1.79-14.55,9.5-.8,6.68,5.13,11.95,11.16,11.74Zm-8.21-13.55c.66-.26,2,.13,1.83.78-.17.67-1.35.62-1.92.22-.15-.11-.07-.94.08-1Zm-.14,4.62c-.65-.3-.67-1.09-.28-1.79.82-.63,2.04-.12,2.12.14.3.97-.99,2.04-1.84,1.64Zm1.81,3.29c-.59.12-1.15-.59-1.08-1.01.2-1.19,2-2.27,2.59-1.71.72.67-.28,2.47-1.51,2.73Zm2.85,2.27c-.54.28-1.17-.11-1.25-.64-.21-1.37,1.1-2.88,1.76-2.54.9.47.65,2.59-.51,3.18Zm2.43.44c-.35-.61-.16-2,.51-1.92.69.07.81,1.25.49,1.87-.08.16-.92.2-1,.06Zm2.86.02c-.74-.72-.41-2-.16-2.12.91-.43,2.16.69,1.89,1.58-.21.69-.98.82-1.73.53Zm3.45-1.85c-.82-.26-1.37-1.25-.9-1.78.49-.55,1.48.36,1.71,1.16.04.13-.61.68-.81.61Zm2.5-2.65c-.48.93-3.43-1.03-2.86-2.11.54-1.04,3.76.36,2.86,2.11Zm.62-3.65c-.54,1.24-3.17.05-2.94-.97.29-1.29,3.64-.63,2.94.97Zm-1.55-4.6c.81.33.63,1.82-.42,1.97-.39.06-1.45.25-1.8-.21-.45-.6,1.17-2.18,2.22-1.76Zm-1.06-1.85c.43.7-1.37,2.04-2.49,1.67-.24-.06-.36-.26-.27-.61.4-1.62,1.95-2.38,2.77-1.06Zm-3.09,7.73c-.73,1.51-2.68,2.05-4.34,1.21-1.77-.9-2.58-3.06-1.7-4.57.82-1.4,2.83-1.81,4.43-.91,1.6.91,2.32,2.82,1.61,4.27Zm-1.15-9.66c1.02.48,1.21,1.15.77,2.01-.27.52-.74.82-1.31.57-.92-.41-.91-1.2-.63-2,.21-.61.71-.68,1.16-.57Zm-3.59.19c.27-.2.51-.11.73.15.73.87.28,2.31-.37,2.52-.97.31-1.28-1.98-.36-2.66Zm-2.4.88c.98.05,1.6,1.38,1.09,1.8-.77.65-1.79-.54-1.7-1.35.02-.18.4-.47.61-.46Zm-2.31,2.16c1.13-.46,2.46.78,2.12,1.28-.62.93-2.28.39-2.51-.67-.04-.17.2-.54.39-.61Z"/>
    </g>
  </g>
</svg>