<?xml version="1.0" encoding="UTF-8"?>
<svg id="_レイヤー_2" data-name="レイヤー 2" xmlns="http://www.w3.org/2000/svg" viewBox="0 0 257.88 315.32" width="100" height="100">
  <g id="_メイン" data-name="メイン">
    <g>
      <path d="m102.01,10.51c19.63,2.29,35.8,4.18,51.97,6.07,12.58,1.47,25.14,3.12,37.74,4.35,10.41,1.02,19.92,4.6,29.1,9.27,9.01,4.57,17.05,10.5,23.65,18.24,7.67,8.98,12.47,19.21,13.29,31.18.65,9.46-1.47,18.3-5.75,26.66-3.4,6.64-7.78,12.55-13.34,17.54-4.49,4.04-8.66,8.4-14.02,11.44-5.68,3.22-11.67,5.25-18.09,5.96-5.63.62-11.27,1.14-16.92,1.55-8.32.6-16.21,2.56-22.43,8.77-2.6,2.6-4.66,5.58-6.26,8.86-6.15,12.65-13.1,24.85-20.07,37.05-3.31,5.79-5.93,11.93-8.54,18.06-2.8,6.58-6.7,12.63-9.14,19.38-.6,1.67-1.94,1.94-3.47,2.03-2.59.16-4.99-.74-7.48-1.16-2.02-.34-2.53.06-2.93,2.02-.15.72.08,1,.66,1.41,4.05,2.8,4.64,4.55,3,9.13-1.53,4.28-3.67,8.18-7.36,11.02-2.36,1.81-4.12,2.06-5.94.83-2.1-1.43-2.69-3.19-1.86-6.05.85-2.92,2.21-5.63,3.47-8.38,1.51-3.3,2.95-6.64,4.42-9.96.34-.77.89-1.7-.32-2.07-.94-.29-1.1.7-1.28,1.37-1.98,7.05-5.29,13.52-8.67,19.95-2.32,4.43-5.3,8.39-8.46,12.22-1.11,1.34-2.24,2.6-4.26,1.99-.96-.29-1.61.2-2.1.99-.38.62-.85,1.19-1.2,1.82-5.47,9.98-15.55,26.36-15.11,30.58.51,4.91,4.87,13.1,3.34,12.69-1.61-.43-4.45-7.91-4.94-13.13-.42-4.47,2.25-8.65,4.33-12.64,3.47-6.66,6.97-13.3,10.5-19.92.69-1.29,1.6-2.4.41-3.93-.74-.95-.27-2.04.05-3.12,1.08-3.65,2.95-6.9,4.91-10.1,3.87-6.32,7.15-12.92,9.49-19.97.94-2.83.94-2.91-1.86-3.84-3.09-1.02-6.22-1.91-9.31-2.94-3.26-1.08-3.3-1.21-1.85-4.26,4.54-9.51,9.16-18.98,13.63-28.52,8.54-18.21,18.12-35.88,27.13-53.85,4.59-9.15,8.31-18.57,10.71-28.5,1.17-4.87,1.16-9.88.1-14.8-1.09-5.06-4.2-8-9.32-8.71-12.66-1.77-25.38-3.18-38-5.19-17.74-2.83-35.52-5.49-53.16-8.95-7.92-1.56-15.79-3.41-23.68-5.16-1.17-.26-2.3-.71-3.42-1.15-1.84-.72-2.82-2.11-3.12-4.09-.37-2.42-.34-4.85-.17-7.25,1.08-15.26,3.1-30.4,5.49-45.5.36-2.27,1-4.5,1.66-6.7C8.17.07,8.65-.23,11.65.11c12.34,1.42,24.68,2.88,37.02,4.3,18.93,2.18,37.86,4.33,53.34,6.1Zm-18.88,254.24c.08-.35.7.15,1.05.23.55.12,1.19.76,1.65.2.78-1.22-1.06-1.31-.64-1.81.15-.18.49,0,.7.09.57.23,1.21.52,1.54-.18.39-.83-.51-.89-.95-1.17-.81-.51-1.62-1.04-2.49-1.42-.84-.37-1.99-1.63-2.47-.86-.62,1,1.08,1.18,1.71,1.79.65.64,1.93.87,1.68,1.58-.18.5-2.06-.94-3.34-1.44-.35-.13-.69-.13-.83.24-.07.17.04.46.15.65.29.48,2.22,1.3,1.94,1.77-.23.4-2.08-1.56-2.88-.47-.7.95.41,1.37.91,1.93.23.26.52.47.81.67.81.55,1.92,1.09,2.56.34.96-1.12-1.17-1.8-1.09-2.13Zm7.31-6.92c-.32.5-3.3-1.51-5.32-2.55-.54-.28-1.1-.65-1.48.14-.35.72.19,1.12.7,1.42,1.55.91,3.11,1.79,4.68,2.68,1.32.75,3.77-2.98,2.69-3.77-1.8-1.16-3.81-2-5.76-2.92-.22-.11-.73.09-.93.31-.27.28-.12.71.19.91,1.01.64,2.05,1.24,3.09,1.84,1.13.65,2.71,1.06,2.14,1.95Zm4.25-9.79c-.2.42-2.99-1.27-4.79-1.91-.48-.17-.93-.11-1.2.41-.28.55.03,1.01.43,1.21,1.7.87,3.43,1.67,5.16,2.46.55.25,1.18.35,1.58-.3.73-1.33-.97-1.27-.81-1.72.24-.68,1.58.64,2.18-1.21.32-.98-.93-.95-1.51-1.19-1.55-.65-3.13-1.21-4.71-1.75-.3-.1-.88-.05-.99.13-.29.48.04.81.5,1.1,1.57.98,4.57,1.87,4.16,2.78Zm59.13-171.84c-3.3,24.02,12.8,44.61,34.2,48.63,24.83,4.67,45.49-13.09,49.23-34.16,4.21-23.79-11.94-46.57-35-50.25-23.29-3.72-44.48,11.87-48.42,35.78ZM17.71,33.55c.51-3.14,1-7.84,1.96-12.48,1.03-4.98,1.7-10.03,2.43-15.07.34-2.34-.06-2.84-2.3-3.14-2.15-.29-4.31-.51-6.47-.63-2.86-.16-3.96.58-4.77,3.3-.49,1.62-.84,3.29-1.08,4.96-1.43,10.2-2.86,20.4-4.17,30.61-.78,6.12-1.25,12.28-1.38,18.46-.07,3.18,1.67,4.9,4.32,5.97,1,.4,2.07.66,3.13.89,3.22.7,3.64.3,4.3-2.92,1.94-9.4,2.4-18.98,4.03-29.97Zm53.8,8.41c.59-4.64-.2-8.37-2.87-11.48-1.65-1.91-3.5-3.68-5.4-5.34-8.46-7.43-18.79-11.11-29.24-14.52-.82-.27-2.14-.92-2.56.21-.48,1.29,1.04,1.29,1.83,1.66.43.2.93.24,1.39.39,7.81,2.55,15.39,5.61,22.23,10.29,3.21,2.19,6.16,4.66,8.5,7.81,5.14,6.91,4.19,13.46-2.7,18.57-4.24,3.14-9.03,5.06-14.1,6.36-7.17,1.85-14.47,2.5-21.83,2.73-.72.02-1.45-.02-2.15.11-.26.05-.62.47-.63.74-.02.28.26.76.51.85.55.19,1.17.24,1.76.24,8.22-.1,16.35-.96,24.31-3.11,5.16-1.39,10.06-3.4,14.45-6.51,3.35-2.36,5.98-5.28,6.5-8.98Zm39.09,204.08c.52-2.89.23-3.59-1.78-4.32-2.05-.74-1.88,1.26-2.48,2.19-.78,1.21-1.36,2.54-2.01,3.83-1.03,2.04-2.05,4.1-2.3,6.42-.11,1.07-.39,2.36.8,2.89,1.13.51,2.01-.45,2.82-1.16.36-.31.67-.69.97-1.06,2.2-2.67,3.24-5.87,3.98-8.8Zm-17.47-4.19c-.43-.1-.66-.2-.9-.21-.45-.02-.98-.12-1.17.46-.19.59.26.88.69,1.06,1.75.73,3.51,1.44,5.28,2.12.48.18.96.08,1.19-.43.3-.66.01-1.19-.61-1.42-1.55-.59-3.12-1.11-4.49-1.59Zm6.21.3c.29-.81-.42-1.02-.95-1.21-1.8-.65-3.6-1.28-5.42-1.85-.47-.15-1.01.07-1.03.66,0,.27.27.7.52.81,1.77.73,6.6,2.38,6.88,1.6Zm-10.62,6.55c-.74-.16-1.05-.03-1.14.37-.04.19.04.55.18.63,1.89,1.04,3.8,2.06,5.72,3.04.52.27.91,0,1.11-.53.14-.38.03-.79-.3-.94-1.95-.93-3.92-1.81-5.56-2.56Zm4.57,5.87c.05-.2.08-.55-.03-.62-1.79-1.17-4.12-2.32-6.34-3.15-.13-.05-.47.15-.55.31-.19.37.04.72.35.89,1.77.98,3.55,1.96,5.34,2.89.44.23,1.08.25,1.24-.33Zm1.99-19.76c-.46-.15-1.03-.27-1.26.18-.23.45.12.88.61,1.09,1.64.69,3.27,1.38,4.91,2.06.55.23,1.23.46,1.56-.18.38-.73-.34-1.04-.86-1.25-1.64-.66-3.31-1.27-4.97-1.9Zm-11.99,22.61c-.44-.15-.77.13-.87.28-.09.14-.01.52.12.64,1.62,1.46,3.49,2.51,5.48,3.36.23.1.7-.13.93-.35.3-.28.17-.69-.16-.88-1.87-1.06-3.9-2.53-5.5-3.06Zm12.81-24.72c-.46-.16-1.1-.33-1.28.1-.2.46.4.8.82.98,1.63.69,3.28,1.35,4.93,2.01.47.19.94.25,1.16-.34.2-.55-.1-1.01-.58-1.1-1.76-.33-3.39-1.03-5.05-1.65Zm4.67.66c.56.15,1.36.51,1.55-.27.17-.68-.59-.92-1.17-1.11-1.37-.44-2.72-.93-4.1-1.33-.5-.14-1.31-.58-1.49.13-.17.65.75.82,1.26,1.04,1.32.57,2.63,1.19,3.96,1.54Zm-7.06,3.47c-.24-.08-.42-.05-.59.36-.29.71.41.95.95,1.15,1.66.61,3.32,1.21,4.99,1.81.45.16.98.29,1.15-.3.2-.68-.49-.66-.87-.82-1.64-.66-4.07-1.66-5.63-2.2Zm29.07-96.01c-.65-.07-1,.02-1.09.41-.05.2.04.55.19.65,1.05.72,2.01,1.72,3.47,1.27.09-.03.19-.47.1-.58-.77-.94-1.75-1.57-2.67-1.75Zm-2.49,10.39c-.54-.95-1.45-1.42-2.55-1.55-.34-.04-.72.21-.56.66.38,1.06,1.34,1.28,2.29,1.47.37.08.69-.05.82-.59Zm-.06-5.71c-.37-.05-.73.01-.81.43-.04.2.05.5.19.64.7.65,1.46,1.26,2.52.95.16-.05.38-.39.34-.53-.33-1.1-1.32-1.25-2.23-1.48Zm8.32-1.48c-.09-.51-.36-.88-.88-.97-.4-.07-.72.1-.79.51-.12.72.19,1.15.94,1.12.37-.02.64-.26.72-.65Zm-5.41,8.7c-.08-.36-.22-.7-.66-.68-.39.02-.66.25-.63.67.03.36.13.73.63.63.33-.07.74-.1.67-.62Zm1.49-3.49c.27-.13.69-.12.61-.64-.06-.37-.24-.61-.61-.73-.42-.14-.67.1-.75.44-.12.55.19.85.75.93Z"/>
      <path d="m194.72,117.29c-.12.63-.45,1.21-1.15,1.17-.68-.04-.99-.63-.96-1.28.05-1.09.12-2.18.27-3.25.47-3.22.49-3.22-2.72-4.07-.23-.06-.47-.12-.7-.18-3-.71-3.05-.73-4.11,2.16-.5,1.37-.97,2.75-1.9,3.89-.55.67-1.31,1.35-2.15.74-.7-.51-.21-1.31.13-1.96.84-1.61,1.67-3.22,2.51-4.83.53-1.03.4-1.86-.74-2.37-.11-.05-.22-.09-.33-.16-1.44-.88-2.81-2.32-4.32-2.49-1.68-.19-2.53,1.99-3.89,2.95-.1.07-.18.17-.28.23-.86.56-1.78,1.86-2.77.73-1.02-1.17,4.53-4.45,4.34-6.16-.15-1.31-1.84-2.43-2.82-3.65q-1.96-2.46-4.38-.52c-1.23.98-2.44,2-3.93,2.57-.87.33-1.73.16-2.24-.66-.7-1.12.38-1.51,1.02-1.89,1.67-.97,3.4-1.84,5.13-2.69,1.16-.57,1.65-1.23,1.01-2.56-.79-1.62-.96-3.91-2.2-4.82-1.31-.96-3.39.39-5.13.72-1.18.23-2.36.5-3.58.32-.79-.11-1.47-.46-1.47-1.29,0-.66.66-.96,1.29-1.05,2.26-.32,4.52-.71,6.8-.92,1.5-.14,2.2-.56,1.82-2.25-.4-1.76.74-3.88-.38-5.32-1.01-1.3-3.16-.79-4.72-1.41-.9-.35-1.83-.6-2.73-.96-.67-.27-1.44-.64-1.26-1.51.22-1.01,1.09-.65,1.77-.59,1.95.17,3.72,1.02,5.53,1.64,1.65.57,2.51.26,2.78-1.54.12-.83.4-1.65.7-2.44q1.42-3.79-2.26-5.72c-.96-.5-1.9-1.05-2.82-1.62-.73-.45-.92-1.16-.49-1.86.36-.58,1.03-.52,1.63-.32,1.41.46,2.44,1.52,3.62,2.35,3.01,2.12,3.05,2.08,4.84-.47.48-.69,1.12-1.27,1.72-1.87,2.74-2.75,2.74-2.82-.54-5.13-.79-.55-1.63-1.02-2.41-1.59-.6-.43-1.17-1-.76-1.81.5-.99,1.39-.8,2.2-.49,1.52.59,2.54,1.79,3.56,2.99q2.07,2.45,4.9,1.06,3.9-1.9,2.06-5.8c-.49-1.04-1.64-2.45-.09-3.12,1.46-.64,1.77,1.16,2.3,2.18.72,1.38.42,3.57,1.85,4.15,1.28.52,3.03-.17,4.58-.27,4.01-.26,4.01-.24,3.86-4.43-.03-.85-.09-1.7-.02-2.54.05-.61.31-1.18,1.06-1.25.85-.07,1.37.39,1.58,1.16.4,1.45-.04,2.89-.23,4.32-.38,2.9-.51,2.76,2.22,3.39.12.03.23.06.35.09q4.22,1.19,5.47-3.19c.23-.81.54-1.6.9-2.35.33-.69.91-1.19,1.73-.95.96.28.71,1.1.65,1.8-.1,1.26-.81,2.27-1.35,3.34q-1.6,3.16,1.26,4.93,3.91,2.42,6.59-1.59c.2-.3.37-.63.61-.9.65-.74,1.43-1.6,2.42-.76.86.73.17,1.55-.37,2.2-1.01,1.21-2.03,2.4-3.08,3.57-.8.89-.73,1.62.07,2.51,1.13,1.25,2.24,2.55,3.15,3.97.87,1.36,1.75,1.51,2.91.51.82-.7,1.58-1.49,2.42-2.18.93-.76,2.04-1.79,3.04-.33.91,1.33-.46,1.88-1.34,2.43-1.13.7-2.28,1.37-3.47,1.96-1.25.62-1.46,1.42-.81,2.63.91,1.7.62,4.29,2.15,5.22,1.55.95,3.68-.32,5.53-.77.47-.11.94-.19,1.42-.27.57-.09.94.28,1.13.71.28.62.02,1.18-.55,1.55-1.4.9-3.01.73-4.56.87-2.81.26-2.86.26-2.83,3.16.02,1.56-.88,3.38.06,4.59,1.02,1.31,2.95.36,4.47.54.47.06.94.2,1.4.36.6.21,1.08.58,1.04,1.3-.05.86-.62,1.25-1.41,1.38-1.26.22-2.34-.48-3.5-.73-2.69-.58-2.82-.78-3.56,1.95-.03.12-.12.22-.14.33-.35,1.53-1.9,2.88-1.45,4.38.45,1.47,2.18,2.12,3.57,2.84.11.05.21.12.3.2.63.61,1.26,1.32.66,2.19-.62.91-1.52.59-2.21.04-.85-.67-1.63-1.43-2.38-2.22-.91-.95-1.73-1.29-2.58.05-.19.31-.41.61-.68.84-2.57,2.22-4.78,4.48-1.82,7.99.24.29.17.94.08,1.39-.06.3-.37.6-.64.79-.37.26-.69-.07-.94-.31-1-.98-1.14-2.37-1.66-3.58-.33-.78-.79-1.13-1.65-.61-1.76,1.06-3.63,1.92-5.58,2.56-1.2.4-1.37,1.14-.94,2.25.34.9.61,1.84.76,2.79.11.71.02,1.54-.86,1.76-.9.22-1.3-.46-1.47-1.21-.21-.94-.28-1.91-.49-2.86-.15-.69-.28-1.55-1.23-1.53-1.92.04-3.85.13-5.76.32-.66.07-.85.78-.91,1.41-.09.84-.15,1.69-.23,2.53.02,0-.15,1.69-.3,2.52Zm13.28-32.97c.89-7.14-4.04-13.53-11.12-14.42-7-.87-13.29,4.03-14.09,10.99-.81,7.02,4.37,13.55,11.35,14.31,6.85.74,13.01-4.1,13.86-10.89Zm-28.93-22.76c-.4.25-.84.45-1.21.74-1.33,1.06-2.43,2.34-3.51,3.65-.84,1.02-.58,1.66.46,2.3,2.47,1.51,4.94,3.03,7.32,4.66,1.28.88,1.93.18,2.73-.66.84-.88,1.79-1.53.86-3.02-1.61-2.6-3.65-4.81-5.73-7-.24-.25-.57-.42-.93-.67Zm32.45,42.51c-.05-.18-.07-.3-.13-.41-1.8-3.14-3.82-6.1-6.67-8.41-.89-.72-1.54-.1-2.27.24-.78.37-.94.95-.73,1.77.78,3.02,1.52,6.06,2.28,9.09.09.34.21.87.43.94,1.67.51,2.97-.58,4.35-1.2,1.03-.47,2.26-.8,2.74-2.02Zm-35.98-26.51s2.84.43,4.26.64c.92.13,1.64-.04,1.96-1.06.29-.95.61-1.82-.51-2.51-2.65-1.63-5.26-3.31-7.9-4.95-.38-.24-.79-.47-1.28-.02-.69.65-2.58,5.71-2.18,6.36.9,1.46,2.55.95,3.87,1.3.57.15,1.18.17,1.77.25Zm35.67,2.77c3.35-.29,6.69-.75,9.97-1.53.49-.12.93-.36.86-.95-.25-1.94-.87-3.77-1.87-5.44-.42-.7-1.07-.31-1.59-.05-2.81,1.4-5.6,2.84-8.4,4.24-1.03.51-.84,1.32-.63,2.17.22.87.55,1.63,1.67,1.57Zm-2.63-5.34c.26-.05.64-.06.95-.21,2.8-1.41,5.6-2.84,8.38-4.29.28-.15.58-.48.65-.78.19-.83-3.27-5.1-4.18-5.26-.57-.1-.92.24-1.23.59-2,2.27-4.02,4.52-5.94,6.86-.77.94.09,2.85,1.37,3.1Zm7.95,11.64c0,.06,2.84.54,4.27.78,1.19.19,2.07-.25,1.91-1.45-.22-1.69.88-3.63-.82-5.04-.21-.17-.7-.05-1.06,0-3.09.46-6.18.99-9.28,1.37-1.36.16-1.41,1.02-1.52,2.01-.12,1.14.57,1.5,1.49,1.63,1.67.25,3.34.46,5.01.69Zm-20.89-24.45c.05-.36.1-.72.15-1.08.7-5.47.37-5.78-5.02-4.71-.24.05-.46.14-.7.17-1.1.16-1.34.8-1.09,1.8.71,2.81,1.42,5.61,2.07,8.44.24,1.04.78,1.4,1.78,1.25,1.34-.2,2.61-.31,2.49-2.27-.07-1.18.36-3.6.31-3.61Zm-.08,36.79c-.04,2.81-.07,5.48-.13,8.14-.03,1.57.95,1.77,2.16,1.65,1.58-.15,3.35.36,4.55-1.17.15-.19-.05-.7-.13-1.05-.65-2.71-1.36-5.4-1.95-8.12-.31-1.41-1.07-1.69-2.35-1.42-1.21.25-2.53.27-2.15,1.97Zm-11.43-5.56c.36-1.62-.52-2.4-1.23-3.15-.68-.71-1.3.08-1.87.41-1.25.73-2.46,1.52-3.69,2.28-4.55,2.81-4.6,3.27-.65,7.02.26.25.52.5.8.72.42.34.87.4,1.26-.03,2.11-2.31,4.18-4.66,5.38-7.25Zm28.04-30.5c-.04-.22,0-.53-.12-.66-1.4-1.34-2.99-2.41-4.81-3.07-.47-.17-.9.17-1.13.67-1.25,2.74-2.51,5.48-3.76,8.22-.69,1.51.66,1.79,1.43,2.44.77.64,1.41.7,2.12-.14,1.94-2.3,3.94-4.56,5.91-6.84.15-.18.24-.41.35-.62Zm3.02,25.37c-1.54-.21-3.08-.41-4.62-.63-.81-.11-1.4.15-1.7.94-.3.81-.01,1.35.72,1.77,2.8,1.61,5.61,3.19,8.35,4.9,1.31.82,1.94.36,2.43-.85.27-.67.62-1.31.86-1.98.91-2.54.73-2.88-1.81-3.33-1.41-.25-4.25-.73-4.24-.81Zm-7.2,3.42c-.94-.16-1.29.38-1.69.82-.68.76-.18,1.31.37,1.82,1.68,1.57,3.13,3.33,4.44,5.23,2.64,3.85,2.97,3.84,5.92.03.07-.1.16-.18.24-.27.92-1.02.94-1.81-.4-2.55-2.63-1.45-5.21-3-7.81-4.51-.41-.24-.84-.45-1.07-.58Zm-18.73,5.9c.84-1.97-.96-2.18-1.93-2.88-1.19-.87-1.62.16-2.2.95-1.43,1.95-2.87,3.89-4.41,5.75-.83,1-.66,1.56.31,2.32,3.87,3.02,4.38,2.94,6.3-1.44.68-1.55,1.29-3.13,1.93-4.7Zm-13.74-17.97c-1.06-.21-1.41-.3-1.77-.36-5-.85-4.8-1.24-4.52,4.36.07,1.38.54,1.88,2.01,1.72,2.64-.29,5.19-.96,7.77-1.51.96-.21,1.79-.46,1.75-1.83-.04-1.48-.87-1.81-2.04-1.95-1.31-.16-2.62-.35-3.21-.43Zm22.14-17.76c-.03.22-.25,2.88-.43,4.31-.13,1.07.11,1.84,1.38,2.05,1.17.19,1.72-.26,2.16-1.31.86-2.11,1.85-4.16,2.8-6.24,1.26-2.75,1.11-3.03-1.94-3.74-3.1-.71-3.2-.65-3.63,2.43-.12.83-.23,1.67-.34,2.5Zm-25.2,31.43c.21-.04.34-.03.44-.08,2.88-1.51,5.7-3.11,8.25-5.15.59-.47.29-1.11.12-1.67-.29-.93-1.03-.87-1.75-.72-2.24.45-4.46.98-6.7,1.38-3.09.56-3.14.59-1.97,3.63.26.68.54,1.35.89,1.98.16.28.51.45.73.63Zm18.64,14.9c2.06.41,2.43.28,2.46-1.13.06-2.89-.02-5.79-.05-8.68,0-.63-.18-1.23-.86-1.43-.94-.27-1.27.47-1.55,1.13-.99,2.33-1.85,4.71-2.96,6.98-.7,1.45-.51,2.2,1.07,2.56.7.16,1.38.41,1.89.56Zm-1.76-39.86c-.52-3.36-1.34-6.62-2.35-9.82-.35-1.12-1.26-.92-2.06-.5-1.3.69-3.04.74-3.62,2.48-.03.08.07.23.14.32,2.34,2.57,4.59,5.2,6.46,8.15.19.3.57.38.94.19.36-.18.48-.48.49-.82Z"/>
    </g>
  </g>
</svg>